<?xml version="1.0" encoding="utf-8" standalone="no"?>
<!DOCTYPE svg PUBLIC "-//W3C//DTD SVG 1.1//EN"
  "http://www.w3.org/Graphics/SVG/1.1/DTD/svg11.dtd">
<!-- Created with matplotlib (https://matplotlib.org/) -->
<svg height="432pt" version="1.1" viewBox="0 0 720 432" width="720pt" xmlns="http://www.w3.org/2000/svg" xmlns:xlink="http://www.w3.org/1999/xlink">
 <defs>
  <style type="text/css">
*{stroke-linecap:butt;stroke-linejoin:round;}
  </style>
 </defs>
 <g id="figure_1">
  <g id="patch_1">
   <path d="M 0 432 
L 720 432 
L 720 0 
L 0 0 
z
" style="fill:#ffffff;"/>
  </g>
  <g id="axes_1">
   <g id="patch_2">
    <path d="M 63.56 171.765994 
L 552.69 171.765994 
L 552.69 25.44 
L 63.56 25.44 
z
" style="fill:#ffffff;"/>
   </g>
   <g id="matplotlib.axis_1">
    <g id="xtick_1">
     <g id="line2d_1">
      <defs>
       <path d="M 0 0 
L 0 3.5 
" id="m17cc85becb" style="stroke:#000000;stroke-width:0.8;"/>
      </defs>
      <g>
       <use style="stroke:#000000;stroke-width:0.8;" x="85.793182" xlink:href="#m17cc85becb" y="171.765994"/>
      </g>
     </g>
     <g id="text_1">
      <!-- 2001 -->
      <defs>
       <path d="M 19.1875 8.296875 
L 53.609375 8.296875 
L 53.609375 0 
L 7.328125 0 
L 7.328125 8.296875 
Q 12.9375 14.109375 22.625 23.890625 
Q 32.328125 33.6875 34.8125 36.53125 
Q 39.546875 41.84375 41.421875 45.53125 
Q 43.3125 49.21875 43.3125 52.78125 
Q 43.3125 58.59375 39.234375 62.25 
Q 35.15625 65.921875 28.609375 65.921875 
Q 23.96875 65.921875 18.8125 64.3125 
Q 13.671875 62.703125 7.8125 59.421875 
L 7.8125 69.390625 
Q 13.765625 71.78125 18.9375 73 
Q 24.125 74.21875 28.421875 74.21875 
Q 39.75 74.21875 46.484375 68.546875 
Q 53.21875 62.890625 53.21875 53.421875 
Q 53.21875 48.921875 51.53125 44.890625 
Q 49.859375 40.875 45.40625 35.40625 
Q 44.1875 33.984375 37.640625 27.21875 
Q 31.109375 20.453125 19.1875 8.296875 
z
" id="DejaVuSans-50"/>
       <path d="M 31.78125 66.40625 
Q 24.171875 66.40625 20.328125 58.90625 
Q 16.5 51.421875 16.5 36.375 
Q 16.5 21.390625 20.328125 13.890625 
Q 24.171875 6.390625 31.78125 6.390625 
Q 39.453125 6.390625 43.28125 13.890625 
Q 47.125 21.390625 47.125 36.375 
Q 47.125 51.421875 43.28125 58.90625 
Q 39.453125 66.40625 31.78125 66.40625 
z
M 31.78125 74.21875 
Q 44.046875 74.21875 50.515625 64.515625 
Q 56.984375 54.828125 56.984375 36.375 
Q 56.984375 17.96875 50.515625 8.265625 
Q 44.046875 -1.421875 31.78125 -1.421875 
Q 19.53125 -1.421875 13.0625 8.265625 
Q 6.59375 17.96875 6.59375 36.375 
Q 6.59375 54.828125 13.0625 64.515625 
Q 19.53125 74.21875 31.78125 74.21875 
z
" id="DejaVuSans-48"/>
       <path d="M 12.40625 8.296875 
L 28.515625 8.296875 
L 28.515625 63.921875 
L 10.984375 60.40625 
L 10.984375 69.390625 
L 28.421875 72.90625 
L 38.28125 72.90625 
L 38.28125 8.296875 
L 54.390625 8.296875 
L 54.390625 0 
L 12.40625 0 
z
" id="DejaVuSans-49"/>
      </defs>
      <g transform="translate(74.844075 184.1389)rotate(-315)scale(0.1 -0.1)">
       <use xlink:href="#DejaVuSans-50"/>
       <use x="63.623047" xlink:href="#DejaVuSans-48"/>
       <use x="127.246094" xlink:href="#DejaVuSans-48"/>
       <use x="190.869141" xlink:href="#DejaVuSans-49"/>
      </g>
     </g>
    </g>
    <g id="xtick_2">
     <g id="line2d_2">
      <g>
       <use style="stroke:#000000;stroke-width:0.8;" x="110.496717" xlink:href="#m17cc85becb" y="171.765994"/>
      </g>
     </g>
     <g id="text_2">
      <!-- 2002 -->
      <g transform="translate(99.547611 184.1389)rotate(-315)scale(0.1 -0.1)">
       <use xlink:href="#DejaVuSans-50"/>
       <use x="63.623047" xlink:href="#DejaVuSans-48"/>
       <use x="127.246094" xlink:href="#DejaVuSans-48"/>
       <use x="190.869141" xlink:href="#DejaVuSans-50"/>
      </g>
     </g>
    </g>
    <g id="xtick_3">
     <g id="line2d_3">
      <g>
       <use style="stroke:#000000;stroke-width:0.8;" x="135.200253" xlink:href="#m17cc85becb" y="171.765994"/>
      </g>
     </g>
     <g id="text_3">
      <!-- 2003 -->
      <defs>
       <path d="M 40.578125 39.3125 
Q 47.65625 37.796875 51.625 33 
Q 55.609375 28.21875 55.609375 21.1875 
Q 55.609375 10.40625 48.1875 4.484375 
Q 40.765625 -1.421875 27.09375 -1.421875 
Q 22.515625 -1.421875 17.65625 -0.515625 
Q 12.796875 0.390625 7.625 2.203125 
L 7.625 11.71875 
Q 11.71875 9.328125 16.59375 8.109375 
Q 21.484375 6.890625 26.8125 6.890625 
Q 36.078125 6.890625 40.9375 10.546875 
Q 45.796875 14.203125 45.796875 21.1875 
Q 45.796875 27.640625 41.28125 31.265625 
Q 36.765625 34.90625 28.71875 34.90625 
L 20.21875 34.90625 
L 20.21875 43.015625 
L 29.109375 43.015625 
Q 36.375 43.015625 40.234375 45.921875 
Q 44.09375 48.828125 44.09375 54.296875 
Q 44.09375 59.90625 40.109375 62.90625 
Q 36.140625 65.921875 28.71875 65.921875 
Q 24.65625 65.921875 20.015625 65.03125 
Q 15.375 64.15625 9.8125 62.3125 
L 9.8125 71.09375 
Q 15.4375 72.65625 20.34375 73.4375 
Q 25.25 74.21875 29.59375 74.21875 
Q 40.828125 74.21875 47.359375 69.109375 
Q 53.90625 64.015625 53.90625 55.328125 
Q 53.90625 49.265625 50.4375 45.09375 
Q 46.96875 40.921875 40.578125 39.3125 
z
" id="DejaVuSans-51"/>
      </defs>
      <g transform="translate(124.251146 184.1389)rotate(-315)scale(0.1 -0.1)">
       <use xlink:href="#DejaVuSans-50"/>
       <use x="63.623047" xlink:href="#DejaVuSans-48"/>
       <use x="127.246094" xlink:href="#DejaVuSans-48"/>
       <use x="190.869141" xlink:href="#DejaVuSans-51"/>
      </g>
     </g>
    </g>
    <g id="xtick_4">
     <g id="line2d_4">
      <g>
       <use style="stroke:#000000;stroke-width:0.8;" x="159.903788" xlink:href="#m17cc85becb" y="171.765994"/>
      </g>
     </g>
     <g id="text_4">
      <!-- 2004 -->
      <defs>
       <path d="M 37.796875 64.3125 
L 12.890625 25.390625 
L 37.796875 25.390625 
z
M 35.203125 72.90625 
L 47.609375 72.90625 
L 47.609375 25.390625 
L 58.015625 25.390625 
L 58.015625 17.1875 
L 47.609375 17.1875 
L 47.609375 0 
L 37.796875 0 
L 37.796875 17.1875 
L 4.890625 17.1875 
L 4.890625 26.703125 
z
" id="DejaVuSans-52"/>
      </defs>
      <g transform="translate(148.954681 184.1389)rotate(-315)scale(0.1 -0.1)">
       <use xlink:href="#DejaVuSans-50"/>
       <use x="63.623047" xlink:href="#DejaVuSans-48"/>
       <use x="127.246094" xlink:href="#DejaVuSans-48"/>
       <use x="190.869141" xlink:href="#DejaVuSans-52"/>
      </g>
     </g>
    </g>
    <g id="xtick_5">
     <g id="line2d_5">
      <g>
       <use style="stroke:#000000;stroke-width:0.8;" x="184.607323" xlink:href="#m17cc85becb" y="171.765994"/>
      </g>
     </g>
     <g id="text_5">
      <!-- 2005 -->
      <defs>
       <path d="M 10.796875 72.90625 
L 49.515625 72.90625 
L 49.515625 64.59375 
L 19.828125 64.59375 
L 19.828125 46.734375 
Q 21.96875 47.46875 24.109375 47.828125 
Q 26.265625 48.1875 28.421875 48.1875 
Q 40.625 48.1875 47.75 41.5 
Q 54.890625 34.8125 54.890625 23.390625 
Q 54.890625 11.625 47.5625 5.09375 
Q 40.234375 -1.421875 26.90625 -1.421875 
Q 22.3125 -1.421875 17.546875 -0.640625 
Q 12.796875 0.140625 7.71875 1.703125 
L 7.71875 11.625 
Q 12.109375 9.234375 16.796875 8.0625 
Q 21.484375 6.890625 26.703125 6.890625 
Q 35.15625 6.890625 40.078125 11.328125 
Q 45.015625 15.765625 45.015625 23.390625 
Q 45.015625 31 40.078125 35.4375 
Q 35.15625 39.890625 26.703125 39.890625 
Q 22.75 39.890625 18.8125 39.015625 
Q 14.890625 38.140625 10.796875 36.28125 
z
" id="DejaVuSans-53"/>
      </defs>
      <g transform="translate(173.658217 184.1389)rotate(-315)scale(0.1 -0.1)">
       <use xlink:href="#DejaVuSans-50"/>
       <use x="63.623047" xlink:href="#DejaVuSans-48"/>
       <use x="127.246094" xlink:href="#DejaVuSans-48"/>
       <use x="190.869141" xlink:href="#DejaVuSans-53"/>
      </g>
     </g>
    </g>
    <g id="xtick_6">
     <g id="line2d_6">
      <g>
       <use style="stroke:#000000;stroke-width:0.8;" x="209.310859" xlink:href="#m17cc85becb" y="171.765994"/>
      </g>
     </g>
     <g id="text_6">
      <!-- 2006 -->
      <defs>
       <path d="M 33.015625 40.375 
Q 26.375 40.375 22.484375 35.828125 
Q 18.609375 31.296875 18.609375 23.390625 
Q 18.609375 15.53125 22.484375 10.953125 
Q 26.375 6.390625 33.015625 6.390625 
Q 39.65625 6.390625 43.53125 10.953125 
Q 47.40625 15.53125 47.40625 23.390625 
Q 47.40625 31.296875 43.53125 35.828125 
Q 39.65625 40.375 33.015625 40.375 
z
M 52.59375 71.296875 
L 52.59375 62.3125 
Q 48.875 64.0625 45.09375 64.984375 
Q 41.3125 65.921875 37.59375 65.921875 
Q 27.828125 65.921875 22.671875 59.328125 
Q 17.53125 52.734375 16.796875 39.40625 
Q 19.671875 43.65625 24.015625 45.921875 
Q 28.375 48.1875 33.59375 48.1875 
Q 44.578125 48.1875 50.953125 41.515625 
Q 57.328125 34.859375 57.328125 23.390625 
Q 57.328125 12.15625 50.6875 5.359375 
Q 44.046875 -1.421875 33.015625 -1.421875 
Q 20.359375 -1.421875 13.671875 8.265625 
Q 6.984375 17.96875 6.984375 36.375 
Q 6.984375 53.65625 15.1875 63.9375 
Q 23.390625 74.21875 37.203125 74.21875 
Q 40.921875 74.21875 44.703125 73.484375 
Q 48.484375 72.75 52.59375 71.296875 
z
" id="DejaVuSans-54"/>
      </defs>
      <g transform="translate(198.361752 184.1389)rotate(-315)scale(0.1 -0.1)">
       <use xlink:href="#DejaVuSans-50"/>
       <use x="63.623047" xlink:href="#DejaVuSans-48"/>
       <use x="127.246094" xlink:href="#DejaVuSans-48"/>
       <use x="190.869141" xlink:href="#DejaVuSans-54"/>
      </g>
     </g>
    </g>
    <g id="xtick_7">
     <g id="line2d_7">
      <g>
       <use style="stroke:#000000;stroke-width:0.8;" x="234.014394" xlink:href="#m17cc85becb" y="171.765994"/>
      </g>
     </g>
     <g id="text_7">
      <!-- 2007 -->
      <defs>
       <path d="M 8.203125 72.90625 
L 55.078125 72.90625 
L 55.078125 68.703125 
L 28.609375 0 
L 18.3125 0 
L 43.21875 64.59375 
L 8.203125 64.59375 
z
" id="DejaVuSans-55"/>
      </defs>
      <g transform="translate(223.065287 184.1389)rotate(-315)scale(0.1 -0.1)">
       <use xlink:href="#DejaVuSans-50"/>
       <use x="63.623047" xlink:href="#DejaVuSans-48"/>
       <use x="127.246094" xlink:href="#DejaVuSans-48"/>
       <use x="190.869141" xlink:href="#DejaVuSans-55"/>
      </g>
     </g>
    </g>
    <g id="xtick_8">
     <g id="line2d_8">
      <g>
       <use style="stroke:#000000;stroke-width:0.8;" x="258.717929" xlink:href="#m17cc85becb" y="171.765994"/>
      </g>
     </g>
     <g id="text_8">
      <!-- 2008 -->
      <defs>
       <path d="M 31.78125 34.625 
Q 24.75 34.625 20.71875 30.859375 
Q 16.703125 27.09375 16.703125 20.515625 
Q 16.703125 13.921875 20.71875 10.15625 
Q 24.75 6.390625 31.78125 6.390625 
Q 38.8125 6.390625 42.859375 10.171875 
Q 46.921875 13.96875 46.921875 20.515625 
Q 46.921875 27.09375 42.890625 30.859375 
Q 38.875 34.625 31.78125 34.625 
z
M 21.921875 38.8125 
Q 15.578125 40.375 12.03125 44.71875 
Q 8.5 49.078125 8.5 55.328125 
Q 8.5 64.0625 14.71875 69.140625 
Q 20.953125 74.21875 31.78125 74.21875 
Q 42.671875 74.21875 48.875 69.140625 
Q 55.078125 64.0625 55.078125 55.328125 
Q 55.078125 49.078125 51.53125 44.71875 
Q 48 40.375 41.703125 38.8125 
Q 48.828125 37.15625 52.796875 32.3125 
Q 56.78125 27.484375 56.78125 20.515625 
Q 56.78125 9.90625 50.3125 4.234375 
Q 43.84375 -1.421875 31.78125 -1.421875 
Q 19.734375 -1.421875 13.25 4.234375 
Q 6.78125 9.90625 6.78125 20.515625 
Q 6.78125 27.484375 10.78125 32.3125 
Q 14.796875 37.15625 21.921875 38.8125 
z
M 18.3125 54.390625 
Q 18.3125 48.734375 21.84375 45.5625 
Q 25.390625 42.390625 31.78125 42.390625 
Q 38.140625 42.390625 41.71875 45.5625 
Q 45.3125 48.734375 45.3125 54.390625 
Q 45.3125 60.0625 41.71875 63.234375 
Q 38.140625 66.40625 31.78125 66.40625 
Q 25.390625 66.40625 21.84375 63.234375 
Q 18.3125 60.0625 18.3125 54.390625 
z
" id="DejaVuSans-56"/>
      </defs>
      <g transform="translate(247.768823 184.1389)rotate(-315)scale(0.1 -0.1)">
       <use xlink:href="#DejaVuSans-50"/>
       <use x="63.623047" xlink:href="#DejaVuSans-48"/>
       <use x="127.246094" xlink:href="#DejaVuSans-48"/>
       <use x="190.869141" xlink:href="#DejaVuSans-56"/>
      </g>
     </g>
    </g>
    <g id="xtick_9">
     <g id="line2d_9">
      <g>
       <use style="stroke:#000000;stroke-width:0.8;" x="283.421465" xlink:href="#m17cc85becb" y="171.765994"/>
      </g>
     </g>
     <g id="text_9">
      <!-- 2009 -->
      <defs>
       <path d="M 10.984375 1.515625 
L 10.984375 10.5 
Q 14.703125 8.734375 18.5 7.8125 
Q 22.3125 6.890625 25.984375 6.890625 
Q 35.75 6.890625 40.890625 13.453125 
Q 46.046875 20.015625 46.78125 33.40625 
Q 43.953125 29.203125 39.59375 26.953125 
Q 35.25 24.703125 29.984375 24.703125 
Q 19.046875 24.703125 12.671875 31.3125 
Q 6.296875 37.9375 6.296875 49.421875 
Q 6.296875 60.640625 12.9375 67.421875 
Q 19.578125 74.21875 30.609375 74.21875 
Q 43.265625 74.21875 49.921875 64.515625 
Q 56.59375 54.828125 56.59375 36.375 
Q 56.59375 19.140625 48.40625 8.859375 
Q 40.234375 -1.421875 26.421875 -1.421875 
Q 22.703125 -1.421875 18.890625 -0.6875 
Q 15.09375 0.046875 10.984375 1.515625 
z
M 30.609375 32.421875 
Q 37.25 32.421875 41.125 36.953125 
Q 45.015625 41.5 45.015625 49.421875 
Q 45.015625 57.28125 41.125 61.84375 
Q 37.25 66.40625 30.609375 66.40625 
Q 23.96875 66.40625 20.09375 61.84375 
Q 16.21875 57.28125 16.21875 49.421875 
Q 16.21875 41.5 20.09375 36.953125 
Q 23.96875 32.421875 30.609375 32.421875 
z
" id="DejaVuSans-57"/>
      </defs>
      <g transform="translate(272.472358 184.1389)rotate(-315)scale(0.1 -0.1)">
       <use xlink:href="#DejaVuSans-50"/>
       <use x="63.623047" xlink:href="#DejaVuSans-48"/>
       <use x="127.246094" xlink:href="#DejaVuSans-48"/>
       <use x="190.869141" xlink:href="#DejaVuSans-57"/>
      </g>
     </g>
    </g>
    <g id="xtick_10">
     <g id="line2d_10">
      <g>
       <use style="stroke:#000000;stroke-width:0.8;" x="308.125" xlink:href="#m17cc85becb" y="171.765994"/>
      </g>
     </g>
     <g id="text_10">
      <!-- 2010 -->
      <g transform="translate(297.175893 184.1389)rotate(-315)scale(0.1 -0.1)">
       <use xlink:href="#DejaVuSans-50"/>
       <use x="63.623047" xlink:href="#DejaVuSans-48"/>
       <use x="127.246094" xlink:href="#DejaVuSans-49"/>
       <use x="190.869141" xlink:href="#DejaVuSans-48"/>
      </g>
     </g>
    </g>
    <g id="xtick_11">
     <g id="line2d_11">
      <g>
       <use style="stroke:#000000;stroke-width:0.8;" x="332.828535" xlink:href="#m17cc85becb" y="171.765994"/>
      </g>
     </g>
     <g id="text_11">
      <!-- 2011 -->
      <g transform="translate(321.879429 184.1389)rotate(-315)scale(0.1 -0.1)">
       <use xlink:href="#DejaVuSans-50"/>
       <use x="63.623047" xlink:href="#DejaVuSans-48"/>
       <use x="127.246094" xlink:href="#DejaVuSans-49"/>
       <use x="190.869141" xlink:href="#DejaVuSans-49"/>
      </g>
     </g>
    </g>
    <g id="xtick_12">
     <g id="line2d_12">
      <g>
       <use style="stroke:#000000;stroke-width:0.8;" x="357.532071" xlink:href="#m17cc85becb" y="171.765994"/>
      </g>
     </g>
     <g id="text_12">
      <!-- 2012 -->
      <g transform="translate(346.582964 184.1389)rotate(-315)scale(0.1 -0.1)">
       <use xlink:href="#DejaVuSans-50"/>
       <use x="63.623047" xlink:href="#DejaVuSans-48"/>
       <use x="127.246094" xlink:href="#DejaVuSans-49"/>
       <use x="190.869141" xlink:href="#DejaVuSans-50"/>
      </g>
     </g>
    </g>
    <g id="xtick_13">
     <g id="line2d_13">
      <g>
       <use style="stroke:#000000;stroke-width:0.8;" x="382.235606" xlink:href="#m17cc85becb" y="171.765994"/>
      </g>
     </g>
     <g id="text_13">
      <!-- 2013 -->
      <g transform="translate(371.286499 184.1389)rotate(-315)scale(0.1 -0.1)">
       <use xlink:href="#DejaVuSans-50"/>
       <use x="63.623047" xlink:href="#DejaVuSans-48"/>
       <use x="127.246094" xlink:href="#DejaVuSans-49"/>
       <use x="190.869141" xlink:href="#DejaVuSans-51"/>
      </g>
     </g>
    </g>
    <g id="xtick_14">
     <g id="line2d_14">
      <g>
       <use style="stroke:#000000;stroke-width:0.8;" x="406.939141" xlink:href="#m17cc85becb" y="171.765994"/>
      </g>
     </g>
     <g id="text_14">
      <!-- 2014 -->
      <g transform="translate(395.990035 184.1389)rotate(-315)scale(0.1 -0.1)">
       <use xlink:href="#DejaVuSans-50"/>
       <use x="63.623047" xlink:href="#DejaVuSans-48"/>
       <use x="127.246094" xlink:href="#DejaVuSans-49"/>
       <use x="190.869141" xlink:href="#DejaVuSans-52"/>
      </g>
     </g>
    </g>
    <g id="xtick_15">
     <g id="line2d_15">
      <g>
       <use style="stroke:#000000;stroke-width:0.8;" x="431.642677" xlink:href="#m17cc85becb" y="171.765994"/>
      </g>
     </g>
     <g id="text_15">
      <!-- 2015 -->
      <g transform="translate(420.69357 184.1389)rotate(-315)scale(0.1 -0.1)">
       <use xlink:href="#DejaVuSans-50"/>
       <use x="63.623047" xlink:href="#DejaVuSans-48"/>
       <use x="127.246094" xlink:href="#DejaVuSans-49"/>
       <use x="190.869141" xlink:href="#DejaVuSans-53"/>
      </g>
     </g>
    </g>
    <g id="xtick_16">
     <g id="line2d_16">
      <g>
       <use style="stroke:#000000;stroke-width:0.8;" x="456.346212" xlink:href="#m17cc85becb" y="171.765994"/>
      </g>
     </g>
     <g id="text_16">
      <!-- 2016 -->
      <g transform="translate(445.397106 184.1389)rotate(-315)scale(0.1 -0.1)">
       <use xlink:href="#DejaVuSans-50"/>
       <use x="63.623047" xlink:href="#DejaVuSans-48"/>
       <use x="127.246094" xlink:href="#DejaVuSans-49"/>
       <use x="190.869141" xlink:href="#DejaVuSans-54"/>
      </g>
     </g>
    </g>
    <g id="xtick_17">
     <g id="line2d_17">
      <g>
       <use style="stroke:#000000;stroke-width:0.8;" x="481.049747" xlink:href="#m17cc85becb" y="171.765994"/>
      </g>
     </g>
     <g id="text_17">
      <!-- 2017 -->
      <g transform="translate(470.100641 184.1389)rotate(-315)scale(0.1 -0.1)">
       <use xlink:href="#DejaVuSans-50"/>
       <use x="63.623047" xlink:href="#DejaVuSans-48"/>
       <use x="127.246094" xlink:href="#DejaVuSans-49"/>
       <use x="190.869141" xlink:href="#DejaVuSans-55"/>
      </g>
     </g>
    </g>
    <g id="xtick_18">
     <g id="line2d_18">
      <g>
       <use style="stroke:#000000;stroke-width:0.8;" x="505.753283" xlink:href="#m17cc85becb" y="171.765994"/>
      </g>
     </g>
     <g id="text_18">
      <!-- 2018 -->
      <g transform="translate(494.804176 184.1389)rotate(-315)scale(0.1 -0.1)">
       <use xlink:href="#DejaVuSans-50"/>
       <use x="63.623047" xlink:href="#DejaVuSans-48"/>
       <use x="127.246094" xlink:href="#DejaVuSans-49"/>
       <use x="190.869141" xlink:href="#DejaVuSans-56"/>
      </g>
     </g>
    </g>
    <g id="xtick_19">
     <g id="line2d_19">
      <g>
       <use style="stroke:#000000;stroke-width:0.8;" x="530.456818" xlink:href="#m17cc85becb" y="171.765994"/>
      </g>
     </g>
     <g id="text_19">
      <!-- 2019 -->
      <g transform="translate(519.507712 184.1389)rotate(-315)scale(0.1 -0.1)">
       <use xlink:href="#DejaVuSans-50"/>
       <use x="63.623047" xlink:href="#DejaVuSans-48"/>
       <use x="127.246094" xlink:href="#DejaVuSans-49"/>
       <use x="190.869141" xlink:href="#DejaVuSans-57"/>
      </g>
     </g>
    </g>
    <g id="text_20">
     <!-- Year -->
     <defs>
      <path d="M -0.203125 72.90625 
L 10.40625 72.90625 
L 30.609375 42.921875 
L 50.6875 72.90625 
L 61.28125 72.90625 
L 35.5 34.71875 
L 35.5 0 
L 25.59375 0 
L 25.59375 34.71875 
z
" id="DejaVuSans-89"/>
      <path d="M 56.203125 29.59375 
L 56.203125 25.203125 
L 14.890625 25.203125 
Q 15.484375 15.921875 20.484375 11.0625 
Q 25.484375 6.203125 34.421875 6.203125 
Q 39.59375 6.203125 44.453125 7.46875 
Q 49.3125 8.734375 54.109375 11.28125 
L 54.109375 2.78125 
Q 49.265625 0.734375 44.1875 -0.34375 
Q 39.109375 -1.421875 33.890625 -1.421875 
Q 20.796875 -1.421875 13.15625 6.1875 
Q 5.515625 13.8125 5.515625 26.8125 
Q 5.515625 40.234375 12.765625 48.109375 
Q 20.015625 56 32.328125 56 
Q 43.359375 56 49.78125 48.890625 
Q 56.203125 41.796875 56.203125 29.59375 
z
M 47.21875 32.234375 
Q 47.125 39.59375 43.09375 43.984375 
Q 39.0625 48.390625 32.421875 48.390625 
Q 24.90625 48.390625 20.390625 44.140625 
Q 15.875 39.890625 15.1875 32.171875 
z
" id="DejaVuSans-101"/>
      <path d="M 34.28125 27.484375 
Q 23.390625 27.484375 19.1875 25 
Q 14.984375 22.515625 14.984375 16.5 
Q 14.984375 11.71875 18.140625 8.90625 
Q 21.296875 6.109375 26.703125 6.109375 
Q 34.1875 6.109375 38.703125 11.40625 
Q 43.21875 16.703125 43.21875 25.484375 
L 43.21875 27.484375 
z
M 52.203125 31.203125 
L 52.203125 0 
L 43.21875 0 
L 43.21875 8.296875 
Q 40.140625 3.328125 35.546875 0.953125 
Q 30.953125 -1.421875 24.3125 -1.421875 
Q 15.921875 -1.421875 10.953125 3.296875 
Q 6 8.015625 6 15.921875 
Q 6 25.140625 12.171875 29.828125 
Q 18.359375 34.515625 30.609375 34.515625 
L 43.21875 34.515625 
L 43.21875 35.40625 
Q 43.21875 41.609375 39.140625 45 
Q 35.0625 48.390625 27.6875 48.390625 
Q 23 48.390625 18.546875 47.265625 
Q 14.109375 46.140625 10.015625 43.890625 
L 10.015625 52.203125 
Q 14.9375 54.109375 19.578125 55.046875 
Q 24.21875 56 28.609375 56 
Q 40.484375 56 46.34375 49.84375 
Q 52.203125 43.703125 52.203125 31.203125 
z
" id="DejaVuSans-97"/>
      <path d="M 41.109375 46.296875 
Q 39.59375 47.171875 37.8125 47.578125 
Q 36.03125 48 33.890625 48 
Q 26.265625 48 22.1875 43.046875 
Q 18.109375 38.09375 18.109375 28.8125 
L 18.109375 0 
L 9.078125 0 
L 9.078125 54.6875 
L 18.109375 54.6875 
L 18.109375 46.1875 
Q 20.953125 51.171875 25.484375 53.578125 
Q 30.03125 56 36.53125 56 
Q 37.453125 56 38.578125 55.875 
Q 39.703125 55.765625 41.0625 55.515625 
z
" id="DejaVuSans-114"/>
     </defs>
     <g transform="translate(296.885156 215.203766)scale(0.1 -0.1)">
      <use xlink:href="#DejaVuSans-89"/>
      <use x="60.880859" xlink:href="#DejaVuSans-101"/>
      <use x="122.404297" xlink:href="#DejaVuSans-97"/>
      <use x="183.683594" xlink:href="#DejaVuSans-114"/>
     </g>
    </g>
   </g>
   <g id="matplotlib.axis_2">
    <g id="ytick_1">
     <g id="line2d_20">
      <defs>
       <path d="M 0 0 
L -3.5 0 
" id="mba1030e399" style="stroke:#000000;stroke-width:0.8;"/>
      </defs>
      <g>
       <use style="stroke:#000000;stroke-width:0.8;" x="63.56" xlink:href="#mba1030e399" y="165.452655"/>
      </g>
     </g>
     <g id="text_21">
      <!-- 0 -->
      <g transform="translate(50.1975 169.251874)scale(0.1 -0.1)">
       <use xlink:href="#DejaVuSans-48"/>
      </g>
     </g>
    </g>
    <g id="ytick_2">
     <g id="line2d_21">
      <g>
       <use style="stroke:#000000;stroke-width:0.8;" x="63.56" xlink:href="#mba1030e399" y="126.168611"/>
      </g>
     </g>
     <g id="text_22">
      <!-- 5000 -->
      <g transform="translate(31.11 129.967829)scale(0.1 -0.1)">
       <use xlink:href="#DejaVuSans-53"/>
       <use x="63.623047" xlink:href="#DejaVuSans-48"/>
       <use x="127.246094" xlink:href="#DejaVuSans-48"/>
       <use x="190.869141" xlink:href="#DejaVuSans-48"/>
      </g>
     </g>
    </g>
    <g id="ytick_3">
     <g id="line2d_22">
      <g>
       <use style="stroke:#000000;stroke-width:0.8;" x="63.56" xlink:href="#mba1030e399" y="86.884566"/>
      </g>
     </g>
     <g id="text_23">
      <!-- 10000 -->
      <g transform="translate(24.7475 90.683785)scale(0.1 -0.1)">
       <use xlink:href="#DejaVuSans-49"/>
       <use x="63.623047" xlink:href="#DejaVuSans-48"/>
       <use x="127.246094" xlink:href="#DejaVuSans-48"/>
       <use x="190.869141" xlink:href="#DejaVuSans-48"/>
       <use x="254.492188" xlink:href="#DejaVuSans-48"/>
      </g>
     </g>
    </g>
    <g id="ytick_4">
     <g id="line2d_23">
      <g>
       <use style="stroke:#000000;stroke-width:0.8;" x="63.56" xlink:href="#mba1030e399" y="47.600522"/>
      </g>
     </g>
     <g id="text_24">
      <!-- 15000 -->
      <g transform="translate(24.7475 51.399741)scale(0.1 -0.1)">
       <use xlink:href="#DejaVuSans-49"/>
       <use x="63.623047" xlink:href="#DejaVuSans-53"/>
       <use x="127.246094" xlink:href="#DejaVuSans-48"/>
       <use x="190.869141" xlink:href="#DejaVuSans-48"/>
       <use x="254.492188" xlink:href="#DejaVuSans-48"/>
      </g>
     </g>
    </g>
    <g id="text_25">
     <!-- MODIS Fires -->
     <defs>
      <path d="M 9.8125 72.90625 
L 24.515625 72.90625 
L 43.109375 23.296875 
L 61.8125 72.90625 
L 76.515625 72.90625 
L 76.515625 0 
L 66.890625 0 
L 66.890625 64.015625 
L 48.09375 14.015625 
L 38.1875 14.015625 
L 19.390625 64.015625 
L 19.390625 0 
L 9.8125 0 
z
" id="DejaVuSans-77"/>
      <path d="M 39.40625 66.21875 
Q 28.65625 66.21875 22.328125 58.203125 
Q 16.015625 50.203125 16.015625 36.375 
Q 16.015625 22.609375 22.328125 14.59375 
Q 28.65625 6.59375 39.40625 6.59375 
Q 50.140625 6.59375 56.421875 14.59375 
Q 62.703125 22.609375 62.703125 36.375 
Q 62.703125 50.203125 56.421875 58.203125 
Q 50.140625 66.21875 39.40625 66.21875 
z
M 39.40625 74.21875 
Q 54.734375 74.21875 63.90625 63.9375 
Q 73.09375 53.65625 73.09375 36.375 
Q 73.09375 19.140625 63.90625 8.859375 
Q 54.734375 -1.421875 39.40625 -1.421875 
Q 24.03125 -1.421875 14.8125 8.828125 
Q 5.609375 19.09375 5.609375 36.375 
Q 5.609375 53.65625 14.8125 63.9375 
Q 24.03125 74.21875 39.40625 74.21875 
z
" id="DejaVuSans-79"/>
      <path d="M 19.671875 64.796875 
L 19.671875 8.109375 
L 31.59375 8.109375 
Q 46.6875 8.109375 53.6875 14.9375 
Q 60.6875 21.78125 60.6875 36.53125 
Q 60.6875 51.171875 53.6875 57.984375 
Q 46.6875 64.796875 31.59375 64.796875 
z
M 9.8125 72.90625 
L 30.078125 72.90625 
Q 51.265625 72.90625 61.171875 64.09375 
Q 71.09375 55.28125 71.09375 36.53125 
Q 71.09375 17.671875 61.125 8.828125 
Q 51.171875 0 30.078125 0 
L 9.8125 0 
z
" id="DejaVuSans-68"/>
      <path d="M 9.8125 72.90625 
L 19.671875 72.90625 
L 19.671875 0 
L 9.8125 0 
z
" id="DejaVuSans-73"/>
      <path d="M 53.515625 70.515625 
L 53.515625 60.890625 
Q 47.90625 63.578125 42.921875 64.890625 
Q 37.9375 66.21875 33.296875 66.21875 
Q 25.25 66.21875 20.875 63.09375 
Q 16.5 59.96875 16.5 54.203125 
Q 16.5 49.359375 19.40625 46.890625 
Q 22.3125 44.4375 30.421875 42.921875 
L 36.375 41.703125 
Q 47.40625 39.59375 52.65625 34.296875 
Q 57.90625 29 57.90625 20.125 
Q 57.90625 9.515625 50.796875 4.046875 
Q 43.703125 -1.421875 29.984375 -1.421875 
Q 24.8125 -1.421875 18.96875 -0.25 
Q 13.140625 0.921875 6.890625 3.21875 
L 6.890625 13.375 
Q 12.890625 10.015625 18.65625 8.296875 
Q 24.421875 6.59375 29.984375 6.59375 
Q 38.421875 6.59375 43.015625 9.90625 
Q 47.609375 13.234375 47.609375 19.390625 
Q 47.609375 24.75 44.3125 27.78125 
Q 41.015625 30.8125 33.5 32.328125 
L 27.484375 33.5 
Q 16.453125 35.6875 11.515625 40.375 
Q 6.59375 45.0625 6.59375 53.421875 
Q 6.59375 63.09375 13.40625 68.65625 
Q 20.21875 74.21875 32.171875 74.21875 
Q 37.3125 74.21875 42.625 73.28125 
Q 47.953125 72.359375 53.515625 70.515625 
z
" id="DejaVuSans-83"/>
      <path id="DejaVuSans-32"/>
      <path d="M 9.8125 72.90625 
L 51.703125 72.90625 
L 51.703125 64.59375 
L 19.671875 64.59375 
L 19.671875 43.109375 
L 48.578125 43.109375 
L 48.578125 34.8125 
L 19.671875 34.8125 
L 19.671875 0 
L 9.8125 0 
z
" id="DejaVuSans-70"/>
      <path d="M 9.421875 54.6875 
L 18.40625 54.6875 
L 18.40625 0 
L 9.421875 0 
z
M 9.421875 75.984375 
L 18.40625 75.984375 
L 18.40625 64.59375 
L 9.421875 64.59375 
z
" id="DejaVuSans-105"/>
      <path d="M 44.28125 53.078125 
L 44.28125 44.578125 
Q 40.484375 46.53125 36.375 47.5 
Q 32.28125 48.484375 27.875 48.484375 
Q 21.1875 48.484375 17.84375 46.4375 
Q 14.5 44.390625 14.5 40.28125 
Q 14.5 37.15625 16.890625 35.375 
Q 19.28125 33.59375 26.515625 31.984375 
L 29.59375 31.296875 
Q 39.15625 29.25 43.1875 25.515625 
Q 47.21875 21.78125 47.21875 15.09375 
Q 47.21875 7.46875 41.1875 3.015625 
Q 35.15625 -1.421875 24.609375 -1.421875 
Q 20.21875 -1.421875 15.453125 -0.5625 
Q 10.6875 0.296875 5.421875 2 
L 5.421875 11.28125 
Q 10.40625 8.6875 15.234375 7.390625 
Q 20.0625 6.109375 24.8125 6.109375 
Q 31.15625 6.109375 34.5625 8.28125 
Q 37.984375 10.453125 37.984375 14.40625 
Q 37.984375 18.0625 35.515625 20.015625 
Q 33.0625 21.96875 24.703125 23.78125 
L 21.578125 24.515625 
Q 13.234375 26.265625 9.515625 29.90625 
Q 5.8125 33.546875 5.8125 39.890625 
Q 5.8125 47.609375 11.28125 51.796875 
Q 16.75 56 26.8125 56 
Q 31.78125 56 36.171875 55.265625 
Q 40.578125 54.546875 44.28125 53.078125 
z
" id="DejaVuSans-115"/>
     </defs>
     <g transform="translate(18.667812 128.935809)rotate(-90)scale(0.1 -0.1)">
      <use xlink:href="#DejaVuSans-77"/>
      <use x="86.279297" xlink:href="#DejaVuSans-79"/>
      <use x="164.990234" xlink:href="#DejaVuSans-68"/>
      <use x="241.992188" xlink:href="#DejaVuSans-73"/>
      <use x="271.484375" xlink:href="#DejaVuSans-83"/>
      <use x="334.960938" xlink:href="#DejaVuSans-32"/>
      <use x="366.748047" xlink:href="#DejaVuSans-70"/>
      <use x="424.158203" xlink:href="#DejaVuSans-105"/>
      <use x="451.941406" xlink:href="#DejaVuSans-114"/>
      <use x="493.023438" xlink:href="#DejaVuSans-101"/>
      <use x="554.546875" xlink:href="#DejaVuSans-115"/>
     </g>
    </g>
   </g>
   <g id="line2d_24">
    <path clip-path="url(#pbdd6c904c7)" d="M 85.793182 163.535593 
L 110.496717 164.989103 
L 135.200253 156.55089 
L 159.903788 163.472739 
L 184.607323 164.784826 
L 209.310859 164.352702 
L 234.014394 161.594962 
L 258.717929 163.936291 
L 283.421465 164.674831 
L 308.125 163.260605 
L 332.828535 165.02053 
L 357.532071 164.981246 
L 382.235606 164.360558 
L 406.939141 162.168509 
L 431.642677 161.728527 
L 456.346212 144.616398 
L 481.049747 164.82411 
L 505.753283 156.197334 
L 530.456818 130.301292 
" style="fill:none;stroke:#1f77b4;stroke-linecap:square;stroke-width:1.5;"/>
   </g>
   <g id="line2d_25">
    <path clip-path="url(#pbdd6c904c7)" d="M 85.793182 162.687058 
L 110.496717 148.395523 
L 135.200253 149.063352 
L 159.903788 129.059916 
L 184.607323 124.251549 
L 209.310859 144.584971 
L 234.014394 142.801475 
L 258.717929 140.051592 
L 283.421465 154.602402 
L 308.125 139.572326 
L 332.828535 159.269346 
L 357.532071 143.917142 
L 382.235606 161.445682 
L 406.939141 140.884414 
L 431.642677 148.261957 
L 456.346212 149.346197 
L 481.049747 136.743875 
L 505.753283 159.528621 
L 530.456818 130.434858 
" style="fill:none;stroke:#ff7f0e;stroke-linecap:square;stroke-width:1.5;"/>
   </g>
   <g id="line2d_26">
    <path clip-path="url(#pbdd6c904c7)" d="M 85.793182 163.763441 
L 110.496717 159.465766 
L 135.200253 154.531691 
L 159.903788 150.147591 
L 184.607323 125.288648 
L 209.310859 140.632996 
L 234.014394 141.316538 
L 258.717929 151.239688 
L 283.421465 162.451354 
L 308.125 137.089575 
L 332.828535 155.403796 
L 357.532071 155.780923 
L 382.235606 162.80491 
L 406.939141 152.528204 
L 431.642677 139.76089 
L 456.346212 143.508588 
L 481.049747 143.587156 
L 505.753283 152.229646 
L 530.456818 130.733417 
" style="fill:none;stroke:#2ca02c;stroke-linecap:square;stroke-width:1.5;"/>
   </g>
   <g id="line2d_27">
    <path clip-path="url(#pbdd6c904c7)" d="M 85.793182 164.572692 
L 110.496717 163.920577 
L 135.200253 160.58929 
L 159.903788 158.020114 
L 184.607323 151.57753 
L 209.310859 155.953773 
L 234.014394 153.777437 
L 258.717929 159.544335 
L 283.421465 161.351401 
L 308.125 158.609374 
L 332.828535 163.205607 
L 357.532071 156.731597 
L 382.235606 164.690544 
L 406.939141 156.448752 
L 431.642677 154.924531 
L 456.346212 155.867348 
L 481.049747 148.379809 
L 505.753283 157.902261 
L 530.456818 137.890969 
" style="fill:none;stroke:#d62728;stroke-linecap:square;stroke-width:1.5;"/>
   </g>
   <g id="line2d_28">
    <path clip-path="url(#pbdd6c904c7)" d="M 85.793182 161.689243 
L 110.496717 164.556979 
L 135.200253 130.269865 
L 159.903788 163.810582 
L 184.607323 164.47841 
L 209.310859 164.038429 
L 234.014394 153.486735 
L 258.717929 163.700586 
L 283.421465 164.187709 
L 308.125 161.594962 
L 332.828535 165.028387 
L 357.532071 164.957676 
L 382.235606 164.698401 
L 406.939141 162.097797 
L 431.642677 163.315603 
L 456.346212 148.62337 
L 481.049747 165.004817 
L 505.753283 160.997844 
L 530.456818 139.21877 
" style="fill:none;stroke:#9467bd;stroke-linecap:square;stroke-width:1.5;"/>
   </g>
   <g id="line2d_29">
    <path clip-path="url(#pbdd6c904c7)" d="M 85.793182 164.871251 
L 110.496717 161.209978 
L 135.200253 159.615046 
L 159.903788 163.826295 
L 184.607323 137.168143 
L 209.310859 158.774367 
L 234.014394 156.72374 
L 258.717929 163.032758 
L 283.421465 164.839824 
L 308.125 152.991756 
L 332.828535 163.402028 
L 357.532071 161.547821 
L 382.235606 164.486267 
L 406.939141 161.013558 
L 431.642677 154.610259 
L 456.346212 152.826763 
L 481.049747 153.298172 
L 505.753283 151.546103 
L 530.456818 140.30301 
" style="fill:none;stroke:#8c564b;stroke-linecap:square;stroke-width:1.5;"/>
   </g>
   <g id="line2d_30">
    <path clip-path="url(#pbdd6c904c7)" d="M 85.793182 154.11528 
L 110.496717 99.691165 
L 135.200253 128.046388 
L 159.903788 87.450257 
L 184.607323 32.091182 
L 209.310859 115.271217 
L 234.014394 93.932124 
L 258.717929 110.376425 
L 283.421465 157.839407 
L 308.125 73.276573 
L 332.828535 162.765626 
L 357.532071 148.536945 
L 382.235606 162.985617 
L 406.939141 152.363211 
L 431.642677 149.291199 
L 456.346212 159.245776 
L 481.049747 133.279023 
L 505.753283 162.537779 
L 530.456818 141.992224 
" style="fill:none;stroke:#e377c2;stroke-linecap:square;stroke-width:1.5;"/>
   </g>
   <g id="line2d_31">
    <path clip-path="url(#pbdd6c904c7)" d="M 85.793182 162.278504 
L 110.496717 142.243641 
L 135.200253 147.256286 
L 159.903788 110.344998 
L 184.607323 128.038531 
L 209.310859 137.435274 
L 234.014394 131.621236 
L 258.717929 139.988737 
L 283.421465 157.768696 
L 308.125 144.302125 
L 332.828535 161.429969 
L 357.532071 151.082551 
L 382.235606 163.119183 
L 406.939141 146.612027 
L 431.642677 151.412537 
L 456.346212 152.787479 
L 481.049747 150.351868 
L 505.753283 161.202121 
L 530.456818 142.950754 
" style="fill:none;stroke:#7f7f7f;stroke-linecap:square;stroke-width:1.5;"/>
   </g>
   <g id="line2d_32">
    <path clip-path="url(#pbdd6c904c7)" d="M 85.793182 163.944147 
L 110.496717 152.905331 
L 135.200253 154.460979 
L 159.903788 137.922397 
L 184.607323 139.014493 
L 209.310859 143.390736 
L 234.014394 141.575813 
L 258.717929 158.090825 
L 283.421465 160.204306 
L 308.125 153.329599 
L 332.828535 163.449169 
L 357.532071 158.302959 
L 382.235606 163.944147 
L 406.939141 154.845963 
L 431.642677 155.977343 
L 456.346212 157.26586 
L 481.049747 157.305144 
L 505.753283 161.013558 
L 530.456818 145.205658 
" style="fill:none;stroke:#bcbd22;stroke-linecap:square;stroke-width:1.5;"/>
   </g>
   <g id="line2d_33">
    <path clip-path="url(#pbdd6c904c7)" d="M 85.793182 165.114812 
L 110.496717 164.234849 
L 135.200253 162.962046 
L 159.903788 159.371485 
L 184.607323 149.636899 
L 209.310859 157.941546 
L 234.014394 157.038013 
L 258.717929 164.046286 
L 283.421465 164.352702 
L 308.125 162.404213 
L 332.828535 163.009187 
L 357.532071 163.464882 
L 382.235606 164.792683 
L 406.939141 162.459211 
L 431.642677 158.082968 
L 456.346212 157.014442 
L 481.049747 158.185107 
L 505.753283 162.372786 
L 530.456818 154.060282 
" style="fill:none;stroke:#17becf;stroke-linecap:square;stroke-width:1.5;"/>
   </g>
   <g id="patch_3">
    <path d="M 63.56 171.765994 
L 63.56 25.44 
" style="fill:none;stroke:#000000;stroke-linecap:square;stroke-linejoin:miter;stroke-width:0.8;"/>
   </g>
   <g id="patch_4">
    <path d="M 552.69 171.765994 
L 552.69 25.44 
" style="fill:none;stroke:#000000;stroke-linecap:square;stroke-linejoin:miter;stroke-width:0.8;"/>
   </g>
   <g id="patch_5">
    <path d="M 63.56 171.765994 
L 552.69 171.765994 
" style="fill:none;stroke:#000000;stroke-linecap:square;stroke-linejoin:miter;stroke-width:0.8;"/>
   </g>
   <g id="patch_6">
    <path d="M 63.56 25.44 
L 552.69 25.44 
" style="fill:none;stroke:#000000;stroke-linecap:square;stroke-linejoin:miter;stroke-width:0.8;"/>
   </g>
   <g id="text_26">
    <!-- MODIS Amazon fires by municipality until Aug 27 of each year -->
    <defs>
     <path d="M 34.1875 63.1875 
L 20.796875 26.90625 
L 47.609375 26.90625 
z
M 28.609375 72.90625 
L 39.796875 72.90625 
L 67.578125 0 
L 57.328125 0 
L 50.6875 18.703125 
L 17.828125 18.703125 
L 11.1875 0 
L 0.78125 0 
z
" id="DejaVuSans-65"/>
     <path d="M 52 44.1875 
Q 55.375 50.25 60.0625 53.125 
Q 64.75 56 71.09375 56 
Q 79.640625 56 84.28125 50.015625 
Q 88.921875 44.046875 88.921875 33.015625 
L 88.921875 0 
L 79.890625 0 
L 79.890625 32.71875 
Q 79.890625 40.578125 77.09375 44.375 
Q 74.3125 48.1875 68.609375 48.1875 
Q 61.625 48.1875 57.5625 43.546875 
Q 53.515625 38.921875 53.515625 30.90625 
L 53.515625 0 
L 44.484375 0 
L 44.484375 32.71875 
Q 44.484375 40.625 41.703125 44.40625 
Q 38.921875 48.1875 33.109375 48.1875 
Q 26.21875 48.1875 22.15625 43.53125 
Q 18.109375 38.875 18.109375 30.90625 
L 18.109375 0 
L 9.078125 0 
L 9.078125 54.6875 
L 18.109375 54.6875 
L 18.109375 46.1875 
Q 21.1875 51.21875 25.484375 53.609375 
Q 29.78125 56 35.6875 56 
Q 41.65625 56 45.828125 52.96875 
Q 50 49.953125 52 44.1875 
z
" id="DejaVuSans-109"/>
     <path d="M 5.515625 54.6875 
L 48.1875 54.6875 
L 48.1875 46.484375 
L 14.40625 7.171875 
L 48.1875 7.171875 
L 48.1875 0 
L 4.296875 0 
L 4.296875 8.203125 
L 38.09375 47.515625 
L 5.515625 47.515625 
z
" id="DejaVuSans-122"/>
     <path d="M 30.609375 48.390625 
Q 23.390625 48.390625 19.1875 42.75 
Q 14.984375 37.109375 14.984375 27.296875 
Q 14.984375 17.484375 19.15625 11.84375 
Q 23.34375 6.203125 30.609375 6.203125 
Q 37.796875 6.203125 41.984375 11.859375 
Q 46.1875 17.53125 46.1875 27.296875 
Q 46.1875 37.015625 41.984375 42.703125 
Q 37.796875 48.390625 30.609375 48.390625 
z
M 30.609375 56 
Q 42.328125 56 49.015625 48.375 
Q 55.71875 40.765625 55.71875 27.296875 
Q 55.71875 13.875 49.015625 6.21875 
Q 42.328125 -1.421875 30.609375 -1.421875 
Q 18.84375 -1.421875 12.171875 6.21875 
Q 5.515625 13.875 5.515625 27.296875 
Q 5.515625 40.765625 12.171875 48.375 
Q 18.84375 56 30.609375 56 
z
" id="DejaVuSans-111"/>
     <path d="M 54.890625 33.015625 
L 54.890625 0 
L 45.90625 0 
L 45.90625 32.71875 
Q 45.90625 40.484375 42.875 44.328125 
Q 39.84375 48.1875 33.796875 48.1875 
Q 26.515625 48.1875 22.3125 43.546875 
Q 18.109375 38.921875 18.109375 30.90625 
L 18.109375 0 
L 9.078125 0 
L 9.078125 54.6875 
L 18.109375 54.6875 
L 18.109375 46.1875 
Q 21.34375 51.125 25.703125 53.5625 
Q 30.078125 56 35.796875 56 
Q 45.21875 56 50.046875 50.171875 
Q 54.890625 44.34375 54.890625 33.015625 
z
" id="DejaVuSans-110"/>
     <path d="M 37.109375 75.984375 
L 37.109375 68.5 
L 28.515625 68.5 
Q 23.6875 68.5 21.796875 66.546875 
Q 19.921875 64.59375 19.921875 59.515625 
L 19.921875 54.6875 
L 34.71875 54.6875 
L 34.71875 47.703125 
L 19.921875 47.703125 
L 19.921875 0 
L 10.890625 0 
L 10.890625 47.703125 
L 2.296875 47.703125 
L 2.296875 54.6875 
L 10.890625 54.6875 
L 10.890625 58.5 
Q 10.890625 67.625 15.140625 71.796875 
Q 19.390625 75.984375 28.609375 75.984375 
z
" id="DejaVuSans-102"/>
     <path d="M 48.6875 27.296875 
Q 48.6875 37.203125 44.609375 42.84375 
Q 40.53125 48.484375 33.40625 48.484375 
Q 26.265625 48.484375 22.1875 42.84375 
Q 18.109375 37.203125 18.109375 27.296875 
Q 18.109375 17.390625 22.1875 11.75 
Q 26.265625 6.109375 33.40625 6.109375 
Q 40.53125 6.109375 44.609375 11.75 
Q 48.6875 17.390625 48.6875 27.296875 
z
M 18.109375 46.390625 
Q 20.953125 51.265625 25.265625 53.625 
Q 29.59375 56 35.59375 56 
Q 45.5625 56 51.78125 48.09375 
Q 58.015625 40.1875 58.015625 27.296875 
Q 58.015625 14.40625 51.78125 6.484375 
Q 45.5625 -1.421875 35.59375 -1.421875 
Q 29.59375 -1.421875 25.265625 0.953125 
Q 20.953125 3.328125 18.109375 8.203125 
L 18.109375 0 
L 9.078125 0 
L 9.078125 75.984375 
L 18.109375 75.984375 
z
" id="DejaVuSans-98"/>
     <path d="M 32.171875 -5.078125 
Q 28.375 -14.84375 24.75 -17.8125 
Q 21.140625 -20.796875 15.09375 -20.796875 
L 7.90625 -20.796875 
L 7.90625 -13.28125 
L 13.1875 -13.28125 
Q 16.890625 -13.28125 18.9375 -11.515625 
Q 21 -9.765625 23.484375 -3.21875 
L 25.09375 0.875 
L 2.984375 54.6875 
L 12.5 54.6875 
L 29.59375 11.921875 
L 46.6875 54.6875 
L 56.203125 54.6875 
z
" id="DejaVuSans-121"/>
     <path d="M 8.5 21.578125 
L 8.5 54.6875 
L 17.484375 54.6875 
L 17.484375 21.921875 
Q 17.484375 14.15625 20.5 10.265625 
Q 23.53125 6.390625 29.59375 6.390625 
Q 36.859375 6.390625 41.078125 11.03125 
Q 45.3125 15.671875 45.3125 23.6875 
L 45.3125 54.6875 
L 54.296875 54.6875 
L 54.296875 0 
L 45.3125 0 
L 45.3125 8.40625 
Q 42.046875 3.421875 37.71875 1 
Q 33.40625 -1.421875 27.6875 -1.421875 
Q 18.265625 -1.421875 13.375 4.4375 
Q 8.5 10.296875 8.5 21.578125 
z
M 31.109375 56 
z
" id="DejaVuSans-117"/>
     <path d="M 48.78125 52.59375 
L 48.78125 44.1875 
Q 44.96875 46.296875 41.140625 47.34375 
Q 37.3125 48.390625 33.40625 48.390625 
Q 24.65625 48.390625 19.8125 42.84375 
Q 14.984375 37.3125 14.984375 27.296875 
Q 14.984375 17.28125 19.8125 11.734375 
Q 24.65625 6.203125 33.40625 6.203125 
Q 37.3125 6.203125 41.140625 7.25 
Q 44.96875 8.296875 48.78125 10.40625 
L 48.78125 2.09375 
Q 45.015625 0.34375 40.984375 -0.53125 
Q 36.96875 -1.421875 32.421875 -1.421875 
Q 20.0625 -1.421875 12.78125 6.34375 
Q 5.515625 14.109375 5.515625 27.296875 
Q 5.515625 40.671875 12.859375 48.328125 
Q 20.21875 56 33.015625 56 
Q 37.15625 56 41.109375 55.140625 
Q 45.0625 54.296875 48.78125 52.59375 
z
" id="DejaVuSans-99"/>
     <path d="M 18.109375 8.203125 
L 18.109375 -20.796875 
L 9.078125 -20.796875 
L 9.078125 54.6875 
L 18.109375 54.6875 
L 18.109375 46.390625 
Q 20.953125 51.265625 25.265625 53.625 
Q 29.59375 56 35.59375 56 
Q 45.5625 56 51.78125 48.09375 
Q 58.015625 40.1875 58.015625 27.296875 
Q 58.015625 14.40625 51.78125 6.484375 
Q 45.5625 -1.421875 35.59375 -1.421875 
Q 29.59375 -1.421875 25.265625 0.953125 
Q 20.953125 3.328125 18.109375 8.203125 
z
M 48.6875 27.296875 
Q 48.6875 37.203125 44.609375 42.84375 
Q 40.53125 48.484375 33.40625 48.484375 
Q 26.265625 48.484375 22.1875 42.84375 
Q 18.109375 37.203125 18.109375 27.296875 
Q 18.109375 17.390625 22.1875 11.75 
Q 26.265625 6.109375 33.40625 6.109375 
Q 40.53125 6.109375 44.609375 11.75 
Q 48.6875 17.390625 48.6875 27.296875 
z
" id="DejaVuSans-112"/>
     <path d="M 9.421875 75.984375 
L 18.40625 75.984375 
L 18.40625 0 
L 9.421875 0 
z
" id="DejaVuSans-108"/>
     <path d="M 18.3125 70.21875 
L 18.3125 54.6875 
L 36.8125 54.6875 
L 36.8125 47.703125 
L 18.3125 47.703125 
L 18.3125 18.015625 
Q 18.3125 11.328125 20.140625 9.421875 
Q 21.96875 7.515625 27.59375 7.515625 
L 36.8125 7.515625 
L 36.8125 0 
L 27.59375 0 
Q 17.1875 0 13.234375 3.875 
Q 9.28125 7.765625 9.28125 18.015625 
L 9.28125 47.703125 
L 2.6875 47.703125 
L 2.6875 54.6875 
L 9.28125 54.6875 
L 9.28125 70.21875 
z
" id="DejaVuSans-116"/>
     <path d="M 45.40625 27.984375 
Q 45.40625 37.75 41.375 43.109375 
Q 37.359375 48.484375 30.078125 48.484375 
Q 22.859375 48.484375 18.828125 43.109375 
Q 14.796875 37.75 14.796875 27.984375 
Q 14.796875 18.265625 18.828125 12.890625 
Q 22.859375 7.515625 30.078125 7.515625 
Q 37.359375 7.515625 41.375 12.890625 
Q 45.40625 18.265625 45.40625 27.984375 
z
M 54.390625 6.78125 
Q 54.390625 -7.171875 48.1875 -13.984375 
Q 42 -20.796875 29.203125 -20.796875 
Q 24.46875 -20.796875 20.265625 -20.09375 
Q 16.0625 -19.390625 12.109375 -17.921875 
L 12.109375 -9.1875 
Q 16.0625 -11.328125 19.921875 -12.34375 
Q 23.78125 -13.375 27.78125 -13.375 
Q 36.625 -13.375 41.015625 -8.765625 
Q 45.40625 -4.15625 45.40625 5.171875 
L 45.40625 9.625 
Q 42.625 4.78125 38.28125 2.390625 
Q 33.9375 0 27.875 0 
Q 17.828125 0 11.671875 7.65625 
Q 5.515625 15.328125 5.515625 27.984375 
Q 5.515625 40.671875 11.671875 48.328125 
Q 17.828125 56 27.875 56 
Q 33.9375 56 38.28125 53.609375 
Q 42.625 51.21875 45.40625 46.390625 
L 45.40625 54.6875 
L 54.390625 54.6875 
z
" id="DejaVuSans-103"/>
     <path d="M 54.890625 33.015625 
L 54.890625 0 
L 45.90625 0 
L 45.90625 32.71875 
Q 45.90625 40.484375 42.875 44.328125 
Q 39.84375 48.1875 33.796875 48.1875 
Q 26.515625 48.1875 22.3125 43.546875 
Q 18.109375 38.921875 18.109375 30.90625 
L 18.109375 0 
L 9.078125 0 
L 9.078125 75.984375 
L 18.109375 75.984375 
L 18.109375 46.1875 
Q 21.34375 51.125 25.703125 53.5625 
Q 30.078125 56 35.796875 56 
Q 45.21875 56 50.046875 50.171875 
Q 54.890625 44.34375 54.890625 33.015625 
z
" id="DejaVuSans-104"/>
    </defs>
    <g transform="translate(121.199688 19.44)scale(0.12 -0.12)">
     <use xlink:href="#DejaVuSans-77"/>
     <use x="86.279297" xlink:href="#DejaVuSans-79"/>
     <use x="164.990234" xlink:href="#DejaVuSans-68"/>
     <use x="241.992188" xlink:href="#DejaVuSans-73"/>
     <use x="271.484375" xlink:href="#DejaVuSans-83"/>
     <use x="334.960938" xlink:href="#DejaVuSans-32"/>
     <use x="366.748047" xlink:href="#DejaVuSans-65"/>
     <use x="435.15625" xlink:href="#DejaVuSans-109"/>
     <use x="532.568359" xlink:href="#DejaVuSans-97"/>
     <use x="593.847656" xlink:href="#DejaVuSans-122"/>
     <use x="646.337891" xlink:href="#DejaVuSans-111"/>
     <use x="707.519531" xlink:href="#DejaVuSans-110"/>
     <use x="770.898438" xlink:href="#DejaVuSans-32"/>
     <use x="802.685547" xlink:href="#DejaVuSans-102"/>
     <use x="837.890625" xlink:href="#DejaVuSans-105"/>
     <use x="865.673828" xlink:href="#DejaVuSans-114"/>
     <use x="906.755859" xlink:href="#DejaVuSans-101"/>
     <use x="968.279297" xlink:href="#DejaVuSans-115"/>
     <use x="1020.378906" xlink:href="#DejaVuSans-32"/>
     <use x="1052.166016" xlink:href="#DejaVuSans-98"/>
     <use x="1115.642578" xlink:href="#DejaVuSans-121"/>
     <use x="1174.822266" xlink:href="#DejaVuSans-32"/>
     <use x="1206.609375" xlink:href="#DejaVuSans-109"/>
     <use x="1304.021484" xlink:href="#DejaVuSans-117"/>
     <use x="1367.400391" xlink:href="#DejaVuSans-110"/>
     <use x="1430.779297" xlink:href="#DejaVuSans-105"/>
     <use x="1458.5625" xlink:href="#DejaVuSans-99"/>
     <use x="1513.542969" xlink:href="#DejaVuSans-105"/>
     <use x="1541.326172" xlink:href="#DejaVuSans-112"/>
     <use x="1604.802734" xlink:href="#DejaVuSans-97"/>
     <use x="1666.082031" xlink:href="#DejaVuSans-108"/>
     <use x="1693.865234" xlink:href="#DejaVuSans-105"/>
     <use x="1721.648438" xlink:href="#DejaVuSans-116"/>
     <use x="1760.857422" xlink:href="#DejaVuSans-121"/>
     <use x="1820.037109" xlink:href="#DejaVuSans-32"/>
     <use x="1851.824219" xlink:href="#DejaVuSans-117"/>
     <use x="1915.203125" xlink:href="#DejaVuSans-110"/>
     <use x="1978.582031" xlink:href="#DejaVuSans-116"/>
     <use x="2017.791016" xlink:href="#DejaVuSans-105"/>
     <use x="2045.574219" xlink:href="#DejaVuSans-108"/>
     <use x="2073.357422" xlink:href="#DejaVuSans-32"/>
     <use x="2105.144531" xlink:href="#DejaVuSans-65"/>
     <use x="2173.552734" xlink:href="#DejaVuSans-117"/>
     <use x="2236.931641" xlink:href="#DejaVuSans-103"/>
     <use x="2300.408203" xlink:href="#DejaVuSans-32"/>
     <use x="2332.195312" xlink:href="#DejaVuSans-50"/>
     <use x="2395.818359" xlink:href="#DejaVuSans-55"/>
     <use x="2459.441406" xlink:href="#DejaVuSans-32"/>
     <use x="2491.228516" xlink:href="#DejaVuSans-111"/>
     <use x="2552.410156" xlink:href="#DejaVuSans-102"/>
     <use x="2587.615234" xlink:href="#DejaVuSans-32"/>
     <use x="2619.402344" xlink:href="#DejaVuSans-101"/>
     <use x="2680.925781" xlink:href="#DejaVuSans-97"/>
     <use x="2742.205078" xlink:href="#DejaVuSans-99"/>
     <use x="2797.185547" xlink:href="#DejaVuSans-104"/>
     <use x="2860.564453" xlink:href="#DejaVuSans-32"/>
     <use x="2892.351562" xlink:href="#DejaVuSans-121"/>
     <use x="2951.53125" xlink:href="#DejaVuSans-101"/>
     <use x="3013.054688" xlink:href="#DejaVuSans-97"/>
     <use x="3074.333984" xlink:href="#DejaVuSans-114"/>
    </g>
   </g>
   <g id="legend_1">
    <g id="patch_7">
     <path d="M 579.1465 176.42125 
L 703.766813 176.42125 
Q 705.766813 176.42125 705.766813 174.42125 
L 705.766813 27.44 
Q 705.766813 25.44 703.766813 25.44 
L 579.1465 25.44 
Q 577.1465 25.44 577.1465 27.44 
L 577.1465 174.42125 
Q 577.1465 176.42125 579.1465 176.42125 
z
" style="fill:#ffffff;opacity:0.8;stroke:#cccccc;stroke-linejoin:miter;"/>
    </g>
    <g id="line2d_34">
     <path d="M 581.1465 33.538437 
L 601.1465 33.538437 
" style="fill:none;stroke:#1f77b4;stroke-linecap:square;stroke-width:1.5;"/>
    </g>
    <g id="line2d_35"/>
    <g id="text_27">
     <!-- Caracaraí -->
     <defs>
      <path d="M 64.40625 67.28125 
L 64.40625 56.890625 
Q 59.421875 61.53125 53.78125 63.8125 
Q 48.140625 66.109375 41.796875 66.109375 
Q 29.296875 66.109375 22.65625 58.46875 
Q 16.015625 50.828125 16.015625 36.375 
Q 16.015625 21.96875 22.65625 14.328125 
Q 29.296875 6.6875 41.796875 6.6875 
Q 48.140625 6.6875 53.78125 8.984375 
Q 59.421875 11.28125 64.40625 15.921875 
L 64.40625 5.609375 
Q 59.234375 2.09375 53.4375 0.328125 
Q 47.65625 -1.421875 41.21875 -1.421875 
Q 24.65625 -1.421875 15.125 8.703125 
Q 5.609375 18.84375 5.609375 36.375 
Q 5.609375 53.953125 15.125 64.078125 
Q 24.65625 74.21875 41.21875 74.21875 
Q 47.75 74.21875 53.53125 72.484375 
Q 59.328125 70.75 64.40625 67.28125 
z
" id="DejaVuSans-67"/>
      <path d="M 20.703125 79.984375 
L 30.421875 79.984375 
L 14.5 61.625 
L 7.03125 61.625 
z
M 9.421875 54.6875 
L 18.40625 54.6875 
L 18.40625 0 
L 9.421875 0 
z
M 13.921875 56 
z
" id="DejaVuSans-237"/>
     </defs>
     <g transform="translate(609.1465 37.038437)scale(0.1 -0.1)">
      <use xlink:href="#DejaVuSans-67"/>
      <use x="69.824219" xlink:href="#DejaVuSans-97"/>
      <use x="131.103516" xlink:href="#DejaVuSans-114"/>
      <use x="172.216797" xlink:href="#DejaVuSans-97"/>
      <use x="233.496094" xlink:href="#DejaVuSans-99"/>
      <use x="288.476562" xlink:href="#DejaVuSans-97"/>
      <use x="349.755859" xlink:href="#DejaVuSans-114"/>
      <use x="390.869141" xlink:href="#DejaVuSans-97"/>
      <use x="452.148438" xlink:href="#DejaVuSans-237"/>
     </g>
    </g>
    <g id="line2d_36">
     <path d="M 581.1465 48.216563 
L 601.1465 48.216563 
" style="fill:none;stroke:#ff7f0e;stroke-linecap:square;stroke-width:1.5;"/>
    </g>
    <g id="line2d_37"/>
    <g id="text_28">
     <!-- Altamira -->
     <g transform="translate(609.1465 51.716563)scale(0.1 -0.1)">
      <use xlink:href="#DejaVuSans-65"/>
      <use x="68.408203" xlink:href="#DejaVuSans-108"/>
      <use x="96.191406" xlink:href="#DejaVuSans-116"/>
      <use x="135.400391" xlink:href="#DejaVuSans-97"/>
      <use x="196.679688" xlink:href="#DejaVuSans-109"/>
      <use x="294.091797" xlink:href="#DejaVuSans-105"/>
      <use x="321.875" xlink:href="#DejaVuSans-114"/>
      <use x="362.988281" xlink:href="#DejaVuSans-97"/>
     </g>
    </g>
    <g id="line2d_38">
     <path d="M 581.1465 62.894688 
L 601.1465 62.894688 
" style="fill:none;stroke:#2ca02c;stroke-linecap:square;stroke-width:1.5;"/>
    </g>
    <g id="line2d_39"/>
    <g id="text_29">
     <!-- Porto Velho -->
     <defs>
      <path d="M 19.671875 64.796875 
L 19.671875 37.40625 
L 32.078125 37.40625 
Q 38.96875 37.40625 42.71875 40.96875 
Q 46.484375 44.53125 46.484375 51.125 
Q 46.484375 57.671875 42.71875 61.234375 
Q 38.96875 64.796875 32.078125 64.796875 
z
M 9.8125 72.90625 
L 32.078125 72.90625 
Q 44.34375 72.90625 50.609375 67.359375 
Q 56.890625 61.8125 56.890625 51.125 
Q 56.890625 40.328125 50.609375 34.8125 
Q 44.34375 29.296875 32.078125 29.296875 
L 19.671875 29.296875 
L 19.671875 0 
L 9.8125 0 
z
" id="DejaVuSans-80"/>
      <path d="M 28.609375 0 
L 0.78125 72.90625 
L 11.078125 72.90625 
L 34.1875 11.53125 
L 57.328125 72.90625 
L 67.578125 72.90625 
L 39.796875 0 
z
" id="DejaVuSans-86"/>
     </defs>
     <g transform="translate(609.1465 66.394688)scale(0.1 -0.1)">
      <use xlink:href="#DejaVuSans-80"/>
      <use x="60.255859" xlink:href="#DejaVuSans-111"/>
      <use x="121.4375" xlink:href="#DejaVuSans-114"/>
      <use x="162.550781" xlink:href="#DejaVuSans-116"/>
      <use x="201.759766" xlink:href="#DejaVuSans-111"/>
      <use x="262.941406" xlink:href="#DejaVuSans-32"/>
      <use x="294.728516" xlink:href="#DejaVuSans-86"/>
      <use x="363.027344" xlink:href="#DejaVuSans-101"/>
      <use x="424.550781" xlink:href="#DejaVuSans-108"/>
      <use x="452.333984" xlink:href="#DejaVuSans-104"/>
      <use x="515.712891" xlink:href="#DejaVuSans-111"/>
     </g>
    </g>
    <g id="line2d_40">
     <path d="M 581.1465 77.972813 
L 601.1465 77.972813 
" style="fill:none;stroke:#d62728;stroke-linecap:square;stroke-width:1.5;"/>
    </g>
    <g id="line2d_41"/>
    <g id="text_30">
     <!-- Apuí -->
     <g transform="translate(609.1465 81.472813)scale(0.1 -0.1)">
      <use xlink:href="#DejaVuSans-65"/>
      <use x="68.408203" xlink:href="#DejaVuSans-112"/>
      <use x="131.884766" xlink:href="#DejaVuSans-117"/>
      <use x="195.263672" xlink:href="#DejaVuSans-237"/>
     </g>
    </g>
    <g id="line2d_42">
     <path d="M 581.1465 93.050938 
L 601.1465 93.050938 
" style="fill:none;stroke:#9467bd;stroke-linecap:square;stroke-width:1.5;"/>
    </g>
    <g id="line2d_43"/>
    <g id="text_31">
     <!-- Mucajaí -->
     <defs>
      <path d="M 9.421875 54.6875 
L 18.40625 54.6875 
L 18.40625 -0.984375 
Q 18.40625 -11.421875 14.421875 -16.109375 
Q 10.453125 -20.796875 1.609375 -20.796875 
L -1.8125 -20.796875 
L -1.8125 -13.1875 
L 0.59375 -13.1875 
Q 5.71875 -13.1875 7.5625 -10.8125 
Q 9.421875 -8.453125 9.421875 -0.984375 
z
M 9.421875 75.984375 
L 18.40625 75.984375 
L 18.40625 64.59375 
L 9.421875 64.59375 
z
" id="DejaVuSans-106"/>
     </defs>
     <g transform="translate(609.1465 96.550938)scale(0.1 -0.1)">
      <use xlink:href="#DejaVuSans-77"/>
      <use x="86.279297" xlink:href="#DejaVuSans-117"/>
      <use x="149.658203" xlink:href="#DejaVuSans-99"/>
      <use x="204.638672" xlink:href="#DejaVuSans-97"/>
      <use x="265.917969" xlink:href="#DejaVuSans-106"/>
      <use x="293.701172" xlink:href="#DejaVuSans-97"/>
      <use x="354.980469" xlink:href="#DejaVuSans-237"/>
     </g>
    </g>
    <g id="line2d_44">
     <path d="M 581.1465 107.729062 
L 601.1465 107.729062 
" style="fill:none;stroke:#8c564b;stroke-linecap:square;stroke-width:1.5;"/>
    </g>
    <g id="line2d_45"/>
    <g id="text_32">
     <!-- Lábrea -->
     <defs>
      <path d="M 9.8125 72.90625 
L 19.671875 72.90625 
L 19.671875 8.296875 
L 55.171875 8.296875 
L 55.171875 0 
L 9.8125 0 
z
" id="DejaVuSans-76"/>
      <path d="M 34.28125 27.484375 
Q 23.390625 27.484375 19.1875 25 
Q 14.984375 22.515625 14.984375 16.5 
Q 14.984375 11.71875 18.140625 8.90625 
Q 21.296875 6.109375 26.703125 6.109375 
Q 34.1875 6.109375 38.703125 11.40625 
Q 43.21875 16.703125 43.21875 25.484375 
L 43.21875 27.484375 
z
M 52.203125 31.203125 
L 52.203125 0 
L 43.21875 0 
L 43.21875 8.296875 
Q 40.140625 3.328125 35.546875 0.953125 
Q 30.953125 -1.421875 24.3125 -1.421875 
Q 15.921875 -1.421875 10.953125 3.296875 
Q 6 8.015625 6 15.921875 
Q 6 25.140625 12.171875 29.828125 
Q 18.359375 34.515625 30.609375 34.515625 
L 43.21875 34.515625 
L 43.21875 35.40625 
Q 43.21875 41.609375 39.140625 45 
Q 35.0625 48.390625 27.6875 48.390625 
Q 23 48.390625 18.546875 47.265625 
Q 14.109375 46.140625 10.015625 43.890625 
L 10.015625 52.203125 
Q 14.9375 54.109375 19.578125 55.046875 
Q 24.21875 56 28.609375 56 
Q 40.484375 56 46.34375 49.84375 
Q 52.203125 43.703125 52.203125 31.203125 
z
M 35.796875 79.984375 
L 45.515625 79.984375 
L 29.59375 61.625 
L 22.125 61.625 
z
" id="DejaVuSans-225"/>
     </defs>
     <g transform="translate(609.1465 111.229062)scale(0.1 -0.1)">
      <use xlink:href="#DejaVuSans-76"/>
      <use x="55.712891" xlink:href="#DejaVuSans-225"/>
      <use x="116.992188" xlink:href="#DejaVuSans-98"/>
      <use x="180.46875" xlink:href="#DejaVuSans-114"/>
      <use x="221.550781" xlink:href="#DejaVuSans-101"/>
      <use x="283.074219" xlink:href="#DejaVuSans-97"/>
     </g>
    </g>
    <g id="line2d_46">
     <path d="M 581.1465 122.807187 
L 601.1465 122.807187 
" style="fill:none;stroke:#e377c2;stroke-linecap:square;stroke-width:1.5;"/>
    </g>
    <g id="line2d_47"/>
    <g id="text_33">
     <!-- São Félix do Xingu -->
     <defs>
      <path d="M 34.28125 27.484375 
Q 23.390625 27.484375 19.1875 25 
Q 14.984375 22.515625 14.984375 16.5 
Q 14.984375 11.71875 18.140625 8.90625 
Q 21.296875 6.109375 26.703125 6.109375 
Q 34.1875 6.109375 38.703125 11.40625 
Q 43.21875 16.703125 43.21875 25.484375 
L 43.21875 27.484375 
z
M 52.203125 31.203125 
L 52.203125 0 
L 43.21875 0 
L 43.21875 8.296875 
Q 40.140625 3.328125 35.546875 0.953125 
Q 30.953125 -1.421875 24.3125 -1.421875 
Q 15.921875 -1.421875 10.953125 3.296875 
Q 6 8.015625 6 15.921875 
Q 6 25.140625 12.171875 29.828125 
Q 18.359375 34.515625 30.609375 34.515625 
L 43.21875 34.515625 
L 43.21875 35.40625 
Q 43.21875 41.609375 39.140625 45 
Q 35.0625 48.390625 27.6875 48.390625 
Q 23 48.390625 18.546875 47.265625 
Q 14.109375 46.140625 10.015625 43.890625 
L 10.015625 52.203125 
Q 14.9375 54.109375 19.578125 55.046875 
Q 24.21875 56 28.609375 56 
Q 40.484375 56 46.34375 49.84375 
Q 52.203125 43.703125 52.203125 31.203125 
z
M 28.8125 66.890625 
L 26.03125 69.578125 
Q 24.953125 70.5625 24.140625 71.015625 
Q 23.34375 71.484375 22.703125 71.484375 
Q 20.84375 71.484375 19.96875 69.703125 
Q 19.09375 67.921875 19 63.921875 
L 12.890625 63.921875 
Q 12.984375 70.515625 15.46875 74.09375 
Q 17.96875 77.6875 22.40625 77.6875 
Q 24.265625 77.6875 25.828125 77 
Q 27.390625 76.3125 29.203125 74.703125 
L 31.984375 72.015625 
Q 33.0625 71.046875 33.859375 70.578125 
Q 34.671875 70.125 35.296875 70.125 
Q 37.15625 70.125 38.03125 71.90625 
Q 38.921875 73.6875 39.015625 77.6875 
L 45.125 77.6875 
Q 45.015625 71.09375 42.53125 67.5 
Q 40.046875 63.921875 35.59375 63.921875 
Q 33.734375 63.921875 32.171875 64.59375 
Q 30.609375 65.28125 28.8125 66.890625 
z
" id="DejaVuSans-227"/>
      <path d="M 56.203125 29.59375 
L 56.203125 25.203125 
L 14.890625 25.203125 
Q 15.484375 15.921875 20.484375 11.0625 
Q 25.484375 6.203125 34.421875 6.203125 
Q 39.59375 6.203125 44.453125 7.46875 
Q 49.3125 8.734375 54.109375 11.28125 
L 54.109375 2.78125 
Q 49.265625 0.734375 44.1875 -0.34375 
Q 39.109375 -1.421875 33.890625 -1.421875 
Q 20.796875 -1.421875 13.15625 6.1875 
Q 5.515625 13.8125 5.515625 26.8125 
Q 5.515625 40.234375 12.765625 48.109375 
Q 20.015625 56 32.328125 56 
Q 43.359375 56 49.78125 48.890625 
Q 56.203125 41.796875 56.203125 29.59375 
z
M 47.21875 32.234375 
Q 47.125 39.59375 43.09375 43.984375 
Q 39.0625 48.390625 32.421875 48.390625 
Q 24.90625 48.390625 20.390625 44.140625 
Q 15.875 39.890625 15.1875 32.171875 
z
M 38.578125 79.984375 
L 48.296875 79.984375 
L 32.375 61.625 
L 24.90625 61.625 
z
" id="DejaVuSans-233"/>
      <path d="M 54.890625 54.6875 
L 35.109375 28.078125 
L 55.90625 0 
L 45.3125 0 
L 29.390625 21.484375 
L 13.484375 0 
L 2.875 0 
L 24.125 28.609375 
L 4.6875 54.6875 
L 15.28125 54.6875 
L 29.78125 35.203125 
L 44.28125 54.6875 
z
" id="DejaVuSans-120"/>
      <path d="M 45.40625 46.390625 
L 45.40625 75.984375 
L 54.390625 75.984375 
L 54.390625 0 
L 45.40625 0 
L 45.40625 8.203125 
Q 42.578125 3.328125 38.25 0.953125 
Q 33.9375 -1.421875 27.875 -1.421875 
Q 17.96875 -1.421875 11.734375 6.484375 
Q 5.515625 14.40625 5.515625 27.296875 
Q 5.515625 40.1875 11.734375 48.09375 
Q 17.96875 56 27.875 56 
Q 33.9375 56 38.25 53.625 
Q 42.578125 51.265625 45.40625 46.390625 
z
M 14.796875 27.296875 
Q 14.796875 17.390625 18.875 11.75 
Q 22.953125 6.109375 30.078125 6.109375 
Q 37.203125 6.109375 41.296875 11.75 
Q 45.40625 17.390625 45.40625 27.296875 
Q 45.40625 37.203125 41.296875 42.84375 
Q 37.203125 48.484375 30.078125 48.484375 
Q 22.953125 48.484375 18.875 42.84375 
Q 14.796875 37.203125 14.796875 27.296875 
z
" id="DejaVuSans-100"/>
      <path d="M 6.296875 72.90625 
L 16.890625 72.90625 
L 35.015625 45.796875 
L 53.21875 72.90625 
L 63.8125 72.90625 
L 40.375 37.890625 
L 65.375 0 
L 54.78125 0 
L 34.28125 31 
L 13.625 0 
L 2.984375 0 
L 29 38.921875 
z
" id="DejaVuSans-88"/>
     </defs>
     <g transform="translate(609.1465 126.307187)scale(0.1 -0.1)">
      <use xlink:href="#DejaVuSans-83"/>
      <use x="63.476562" xlink:href="#DejaVuSans-227"/>
      <use x="124.755859" xlink:href="#DejaVuSans-111"/>
      <use x="185.9375" xlink:href="#DejaVuSans-32"/>
      <use x="217.724609" xlink:href="#DejaVuSans-70"/>
      <use x="275.166016" xlink:href="#DejaVuSans-233"/>
      <use x="336.689453" xlink:href="#DejaVuSans-108"/>
      <use x="364.472656" xlink:href="#DejaVuSans-105"/>
      <use x="392.255859" xlink:href="#DejaVuSans-120"/>
      <use x="451.435547" xlink:href="#DejaVuSans-32"/>
      <use x="483.222656" xlink:href="#DejaVuSans-100"/>
      <use x="546.699219" xlink:href="#DejaVuSans-111"/>
      <use x="607.880859" xlink:href="#DejaVuSans-32"/>
      <use x="639.667969" xlink:href="#DejaVuSans-88"/>
      <use x="708.173828" xlink:href="#DejaVuSans-105"/>
      <use x="735.957031" xlink:href="#DejaVuSans-110"/>
      <use x="799.335938" xlink:href="#DejaVuSans-103"/>
      <use x="862.8125" xlink:href="#DejaVuSans-117"/>
     </g>
    </g>
    <g id="line2d_48">
     <path d="M 581.1465 137.485313 
L 601.1465 137.485313 
" style="fill:none;stroke:#7f7f7f;stroke-linecap:square;stroke-width:1.5;"/>
    </g>
    <g id="line2d_49"/>
    <g id="text_34">
     <!-- Novo Progresso -->
     <defs>
      <path d="M 9.8125 72.90625 
L 23.09375 72.90625 
L 55.421875 11.921875 
L 55.421875 72.90625 
L 64.984375 72.90625 
L 64.984375 0 
L 51.703125 0 
L 19.390625 60.984375 
L 19.390625 0 
L 9.8125 0 
z
" id="DejaVuSans-78"/>
      <path d="M 2.984375 54.6875 
L 12.5 54.6875 
L 29.59375 8.796875 
L 46.6875 54.6875 
L 56.203125 54.6875 
L 35.6875 0 
L 23.484375 0 
z
" id="DejaVuSans-118"/>
     </defs>
     <g transform="translate(609.1465 140.985313)scale(0.1 -0.1)">
      <use xlink:href="#DejaVuSans-78"/>
      <use x="74.804688" xlink:href="#DejaVuSans-111"/>
      <use x="135.986328" xlink:href="#DejaVuSans-118"/>
      <use x="195.166016" xlink:href="#DejaVuSans-111"/>
      <use x="256.347656" xlink:href="#DejaVuSans-32"/>
      <use x="288.134766" xlink:href="#DejaVuSans-80"/>
      <use x="348.421875" xlink:href="#DejaVuSans-114"/>
      <use x="389.503906" xlink:href="#DejaVuSans-111"/>
      <use x="450.685547" xlink:href="#DejaVuSans-103"/>
      <use x="514.162109" xlink:href="#DejaVuSans-114"/>
      <use x="555.244141" xlink:href="#DejaVuSans-101"/>
      <use x="616.767578" xlink:href="#DejaVuSans-115"/>
      <use x="668.867188" xlink:href="#DejaVuSans-115"/>
      <use x="720.966797" xlink:href="#DejaVuSans-111"/>
     </g>
    </g>
    <g id="line2d_50">
     <path d="M 581.1465 152.163437 
L 601.1465 152.163437 
" style="fill:none;stroke:#bcbd22;stroke-linecap:square;stroke-width:1.5;"/>
    </g>
    <g id="line2d_51"/>
    <g id="text_35">
     <!-- Colniza -->
     <g transform="translate(609.1465 155.663437)scale(0.1 -0.1)">
      <use xlink:href="#DejaVuSans-67"/>
      <use x="69.824219" xlink:href="#DejaVuSans-111"/>
      <use x="131.005859" xlink:href="#DejaVuSans-108"/>
      <use x="158.789062" xlink:href="#DejaVuSans-110"/>
      <use x="222.167969" xlink:href="#DejaVuSans-105"/>
      <use x="249.951172" xlink:href="#DejaVuSans-122"/>
      <use x="302.441406" xlink:href="#DejaVuSans-97"/>
     </g>
    </g>
    <g id="line2d_52">
     <path d="M 581.1465 166.841563 
L 601.1465 166.841563 
" style="fill:none;stroke:#17becf;stroke-linecap:square;stroke-width:1.5;"/>
    </g>
    <g id="line2d_53"/>
    <g id="text_36">
     <!-- Nova Mamoré -->
     <g transform="translate(609.1465 170.341563)scale(0.1 -0.1)">
      <use xlink:href="#DejaVuSans-78"/>
      <use x="74.804688" xlink:href="#DejaVuSans-111"/>
      <use x="135.986328" xlink:href="#DejaVuSans-118"/>
      <use x="195.166016" xlink:href="#DejaVuSans-97"/>
      <use x="256.445312" xlink:href="#DejaVuSans-32"/>
      <use x="288.232422" xlink:href="#DejaVuSans-77"/>
      <use x="374.511719" xlink:href="#DejaVuSans-97"/>
      <use x="435.791016" xlink:href="#DejaVuSans-109"/>
      <use x="533.203125" xlink:href="#DejaVuSans-111"/>
      <use x="594.384766" xlink:href="#DejaVuSans-114"/>
      <use x="635.466797" xlink:href="#DejaVuSans-233"/>
     </g>
    </g>
   </g>
  </g>
  <g id="axes_2">
   <g id="patch_8">
    <path d="M 63.56 375.045994 
L 552.69 375.045994 
L 552.69 228.72 
L 63.56 228.72 
z
" style="fill:#ffffff;"/>
   </g>
   <g id="matplotlib.axis_3">
    <g id="xtick_20">
     <g id="line2d_54">
      <g>
       <use style="stroke:#000000;stroke-width:0.8;" x="85.793182" xlink:href="#m17cc85becb" y="375.045994"/>
      </g>
     </g>
     <g id="text_37">
      <!-- 2001 -->
      <g transform="translate(74.844075 387.4189)rotate(-315)scale(0.1 -0.1)">
       <use xlink:href="#DejaVuSans-50"/>
       <use x="63.623047" xlink:href="#DejaVuSans-48"/>
       <use x="127.246094" xlink:href="#DejaVuSans-48"/>
       <use x="190.869141" xlink:href="#DejaVuSans-49"/>
      </g>
     </g>
    </g>
    <g id="xtick_21">
     <g id="line2d_55">
      <g>
       <use style="stroke:#000000;stroke-width:0.8;" x="110.496717" xlink:href="#m17cc85becb" y="375.045994"/>
      </g>
     </g>
     <g id="text_38">
      <!-- 2002 -->
      <g transform="translate(99.547611 387.4189)rotate(-315)scale(0.1 -0.1)">
       <use xlink:href="#DejaVuSans-50"/>
       <use x="63.623047" xlink:href="#DejaVuSans-48"/>
       <use x="127.246094" xlink:href="#DejaVuSans-48"/>
       <use x="190.869141" xlink:href="#DejaVuSans-50"/>
      </g>
     </g>
    </g>
    <g id="xtick_22">
     <g id="line2d_56">
      <g>
       <use style="stroke:#000000;stroke-width:0.8;" x="135.200253" xlink:href="#m17cc85becb" y="375.045994"/>
      </g>
     </g>
     <g id="text_39">
      <!-- 2003 -->
      <g transform="translate(124.251146 387.4189)rotate(-315)scale(0.1 -0.1)">
       <use xlink:href="#DejaVuSans-50"/>
       <use x="63.623047" xlink:href="#DejaVuSans-48"/>
       <use x="127.246094" xlink:href="#DejaVuSans-48"/>
       <use x="190.869141" xlink:href="#DejaVuSans-51"/>
      </g>
     </g>
    </g>
    <g id="xtick_23">
     <g id="line2d_57">
      <g>
       <use style="stroke:#000000;stroke-width:0.8;" x="159.903788" xlink:href="#m17cc85becb" y="375.045994"/>
      </g>
     </g>
     <g id="text_40">
      <!-- 2004 -->
      <g transform="translate(148.954681 387.4189)rotate(-315)scale(0.1 -0.1)">
       <use xlink:href="#DejaVuSans-50"/>
       <use x="63.623047" xlink:href="#DejaVuSans-48"/>
       <use x="127.246094" xlink:href="#DejaVuSans-48"/>
       <use x="190.869141" xlink:href="#DejaVuSans-52"/>
      </g>
     </g>
    </g>
    <g id="xtick_24">
     <g id="line2d_58">
      <g>
       <use style="stroke:#000000;stroke-width:0.8;" x="184.607323" xlink:href="#m17cc85becb" y="375.045994"/>
      </g>
     </g>
     <g id="text_41">
      <!-- 2005 -->
      <g transform="translate(173.658217 387.4189)rotate(-315)scale(0.1 -0.1)">
       <use xlink:href="#DejaVuSans-50"/>
       <use x="63.623047" xlink:href="#DejaVuSans-48"/>
       <use x="127.246094" xlink:href="#DejaVuSans-48"/>
       <use x="190.869141" xlink:href="#DejaVuSans-53"/>
      </g>
     </g>
    </g>
    <g id="xtick_25">
     <g id="line2d_59">
      <g>
       <use style="stroke:#000000;stroke-width:0.8;" x="209.310859" xlink:href="#m17cc85becb" y="375.045994"/>
      </g>
     </g>
     <g id="text_42">
      <!-- 2006 -->
      <g transform="translate(198.361752 387.4189)rotate(-315)scale(0.1 -0.1)">
       <use xlink:href="#DejaVuSans-50"/>
       <use x="63.623047" xlink:href="#DejaVuSans-48"/>
       <use x="127.246094" xlink:href="#DejaVuSans-48"/>
       <use x="190.869141" xlink:href="#DejaVuSans-54"/>
      </g>
     </g>
    </g>
    <g id="xtick_26">
     <g id="line2d_60">
      <g>
       <use style="stroke:#000000;stroke-width:0.8;" x="234.014394" xlink:href="#m17cc85becb" y="375.045994"/>
      </g>
     </g>
     <g id="text_43">
      <!-- 2007 -->
      <g transform="translate(223.065287 387.4189)rotate(-315)scale(0.1 -0.1)">
       <use xlink:href="#DejaVuSans-50"/>
       <use x="63.623047" xlink:href="#DejaVuSans-48"/>
       <use x="127.246094" xlink:href="#DejaVuSans-48"/>
       <use x="190.869141" xlink:href="#DejaVuSans-55"/>
      </g>
     </g>
    </g>
    <g id="xtick_27">
     <g id="line2d_61">
      <g>
       <use style="stroke:#000000;stroke-width:0.8;" x="258.717929" xlink:href="#m17cc85becb" y="375.045994"/>
      </g>
     </g>
     <g id="text_44">
      <!-- 2008 -->
      <g transform="translate(247.768823 387.4189)rotate(-315)scale(0.1 -0.1)">
       <use xlink:href="#DejaVuSans-50"/>
       <use x="63.623047" xlink:href="#DejaVuSans-48"/>
       <use x="127.246094" xlink:href="#DejaVuSans-48"/>
       <use x="190.869141" xlink:href="#DejaVuSans-56"/>
      </g>
     </g>
    </g>
    <g id="xtick_28">
     <g id="line2d_62">
      <g>
       <use style="stroke:#000000;stroke-width:0.8;" x="283.421465" xlink:href="#m17cc85becb" y="375.045994"/>
      </g>
     </g>
     <g id="text_45">
      <!-- 2009 -->
      <g transform="translate(272.472358 387.4189)rotate(-315)scale(0.1 -0.1)">
       <use xlink:href="#DejaVuSans-50"/>
       <use x="63.623047" xlink:href="#DejaVuSans-48"/>
       <use x="127.246094" xlink:href="#DejaVuSans-48"/>
       <use x="190.869141" xlink:href="#DejaVuSans-57"/>
      </g>
     </g>
    </g>
    <g id="xtick_29">
     <g id="line2d_63">
      <g>
       <use style="stroke:#000000;stroke-width:0.8;" x="308.125" xlink:href="#m17cc85becb" y="375.045994"/>
      </g>
     </g>
     <g id="text_46">
      <!-- 2010 -->
      <g transform="translate(297.175893 387.4189)rotate(-315)scale(0.1 -0.1)">
       <use xlink:href="#DejaVuSans-50"/>
       <use x="63.623047" xlink:href="#DejaVuSans-48"/>
       <use x="127.246094" xlink:href="#DejaVuSans-49"/>
       <use x="190.869141" xlink:href="#DejaVuSans-48"/>
      </g>
     </g>
    </g>
    <g id="xtick_30">
     <g id="line2d_64">
      <g>
       <use style="stroke:#000000;stroke-width:0.8;" x="332.828535" xlink:href="#m17cc85becb" y="375.045994"/>
      </g>
     </g>
     <g id="text_47">
      <!-- 2011 -->
      <g transform="translate(321.879429 387.4189)rotate(-315)scale(0.1 -0.1)">
       <use xlink:href="#DejaVuSans-50"/>
       <use x="63.623047" xlink:href="#DejaVuSans-48"/>
       <use x="127.246094" xlink:href="#DejaVuSans-49"/>
       <use x="190.869141" xlink:href="#DejaVuSans-49"/>
      </g>
     </g>
    </g>
    <g id="xtick_31">
     <g id="line2d_65">
      <g>
       <use style="stroke:#000000;stroke-width:0.8;" x="357.532071" xlink:href="#m17cc85becb" y="375.045994"/>
      </g>
     </g>
     <g id="text_48">
      <!-- 2012 -->
      <g transform="translate(346.582964 387.4189)rotate(-315)scale(0.1 -0.1)">
       <use xlink:href="#DejaVuSans-50"/>
       <use x="63.623047" xlink:href="#DejaVuSans-48"/>
       <use x="127.246094" xlink:href="#DejaVuSans-49"/>
       <use x="190.869141" xlink:href="#DejaVuSans-50"/>
      </g>
     </g>
    </g>
    <g id="xtick_32">
     <g id="line2d_66">
      <g>
       <use style="stroke:#000000;stroke-width:0.8;" x="382.235606" xlink:href="#m17cc85becb" y="375.045994"/>
      </g>
     </g>
     <g id="text_49">
      <!-- 2013 -->
      <g transform="translate(371.286499 387.4189)rotate(-315)scale(0.1 -0.1)">
       <use xlink:href="#DejaVuSans-50"/>
       <use x="63.623047" xlink:href="#DejaVuSans-48"/>
       <use x="127.246094" xlink:href="#DejaVuSans-49"/>
       <use x="190.869141" xlink:href="#DejaVuSans-51"/>
      </g>
     </g>
    </g>
    <g id="xtick_33">
     <g id="line2d_67">
      <g>
       <use style="stroke:#000000;stroke-width:0.8;" x="406.939141" xlink:href="#m17cc85becb" y="375.045994"/>
      </g>
     </g>
     <g id="text_50">
      <!-- 2014 -->
      <g transform="translate(395.990035 387.4189)rotate(-315)scale(0.1 -0.1)">
       <use xlink:href="#DejaVuSans-50"/>
       <use x="63.623047" xlink:href="#DejaVuSans-48"/>
       <use x="127.246094" xlink:href="#DejaVuSans-49"/>
       <use x="190.869141" xlink:href="#DejaVuSans-52"/>
      </g>
     </g>
    </g>
    <g id="xtick_34">
     <g id="line2d_68">
      <g>
       <use style="stroke:#000000;stroke-width:0.8;" x="431.642677" xlink:href="#m17cc85becb" y="375.045994"/>
      </g>
     </g>
     <g id="text_51">
      <!-- 2015 -->
      <g transform="translate(420.69357 387.4189)rotate(-315)scale(0.1 -0.1)">
       <use xlink:href="#DejaVuSans-50"/>
       <use x="63.623047" xlink:href="#DejaVuSans-48"/>
       <use x="127.246094" xlink:href="#DejaVuSans-49"/>
       <use x="190.869141" xlink:href="#DejaVuSans-53"/>
      </g>
     </g>
    </g>
    <g id="xtick_35">
     <g id="line2d_69">
      <g>
       <use style="stroke:#000000;stroke-width:0.8;" x="456.346212" xlink:href="#m17cc85becb" y="375.045994"/>
      </g>
     </g>
     <g id="text_52">
      <!-- 2016 -->
      <g transform="translate(445.397106 387.4189)rotate(-315)scale(0.1 -0.1)">
       <use xlink:href="#DejaVuSans-50"/>
       <use x="63.623047" xlink:href="#DejaVuSans-48"/>
       <use x="127.246094" xlink:href="#DejaVuSans-49"/>
       <use x="190.869141" xlink:href="#DejaVuSans-54"/>
      </g>
     </g>
    </g>
    <g id="xtick_36">
     <g id="line2d_70">
      <g>
       <use style="stroke:#000000;stroke-width:0.8;" x="481.049747" xlink:href="#m17cc85becb" y="375.045994"/>
      </g>
     </g>
     <g id="text_53">
      <!-- 2017 -->
      <g transform="translate(470.100641 387.4189)rotate(-315)scale(0.1 -0.1)">
       <use xlink:href="#DejaVuSans-50"/>
       <use x="63.623047" xlink:href="#DejaVuSans-48"/>
       <use x="127.246094" xlink:href="#DejaVuSans-49"/>
       <use x="190.869141" xlink:href="#DejaVuSans-55"/>
      </g>
     </g>
    </g>
    <g id="xtick_37">
     <g id="line2d_71">
      <g>
       <use style="stroke:#000000;stroke-width:0.8;" x="505.753283" xlink:href="#m17cc85becb" y="375.045994"/>
      </g>
     </g>
     <g id="text_54">
      <!-- 2018 -->
      <g transform="translate(494.804176 387.4189)rotate(-315)scale(0.1 -0.1)">
       <use xlink:href="#DejaVuSans-50"/>
       <use x="63.623047" xlink:href="#DejaVuSans-48"/>
       <use x="127.246094" xlink:href="#DejaVuSans-49"/>
       <use x="190.869141" xlink:href="#DejaVuSans-56"/>
      </g>
     </g>
    </g>
    <g id="xtick_38">
     <g id="line2d_72">
      <g>
       <use style="stroke:#000000;stroke-width:0.8;" x="530.456818" xlink:href="#m17cc85becb" y="375.045994"/>
      </g>
     </g>
     <g id="text_55">
      <!-- 2019 -->
      <g transform="translate(519.507712 387.4189)rotate(-315)scale(0.1 -0.1)">
       <use xlink:href="#DejaVuSans-50"/>
       <use x="63.623047" xlink:href="#DejaVuSans-48"/>
       <use x="127.246094" xlink:href="#DejaVuSans-49"/>
       <use x="190.869141" xlink:href="#DejaVuSans-57"/>
      </g>
     </g>
    </g>
    <g id="text_56">
     <!-- Year -->
     <g transform="translate(296.885156 418.483766)scale(0.1 -0.1)">
      <use xlink:href="#DejaVuSans-89"/>
      <use x="60.880859" xlink:href="#DejaVuSans-101"/>
      <use x="122.404297" xlink:href="#DejaVuSans-97"/>
      <use x="183.683594" xlink:href="#DejaVuSans-114"/>
     </g>
    </g>
   </g>
   <g id="matplotlib.axis_4">
    <g id="ytick_5">
     <g id="line2d_73">
      <g>
       <use style="stroke:#000000;stroke-width:0.8;" x="63.56" xlink:href="#mba1030e399" y="368.805767"/>
      </g>
     </g>
     <g id="text_57">
      <!-- 0 -->
      <g transform="translate(50.1975 372.604986)scale(0.1 -0.1)">
       <use xlink:href="#DejaVuSans-48"/>
      </g>
     </g>
    </g>
    <g id="ytick_6">
     <g id="line2d_74">
      <g>
       <use style="stroke:#000000;stroke-width:0.8;" x="63.56" xlink:href="#mba1030e399" y="330.905306"/>
      </g>
     </g>
     <g id="text_58">
      <!-- 100 -->
      <g transform="translate(37.4725 334.704525)scale(0.1 -0.1)">
       <use xlink:href="#DejaVuSans-49"/>
       <use x="63.623047" xlink:href="#DejaVuSans-48"/>
       <use x="127.246094" xlink:href="#DejaVuSans-48"/>
      </g>
     </g>
    </g>
    <g id="ytick_7">
     <g id="line2d_75">
      <g>
       <use style="stroke:#000000;stroke-width:0.8;" x="63.56" xlink:href="#mba1030e399" y="293.004846"/>
      </g>
     </g>
     <g id="text_59">
      <!-- 200 -->
      <g transform="translate(37.4725 296.804065)scale(0.1 -0.1)">
       <use xlink:href="#DejaVuSans-50"/>
       <use x="63.623047" xlink:href="#DejaVuSans-48"/>
       <use x="127.246094" xlink:href="#DejaVuSans-48"/>
      </g>
     </g>
    </g>
    <g id="ytick_8">
     <g id="line2d_76">
      <g>
       <use style="stroke:#000000;stroke-width:0.8;" x="63.56" xlink:href="#mba1030e399" y="255.104386"/>
      </g>
     </g>
     <g id="text_60">
      <!-- 300 -->
      <g transform="translate(37.4725 258.903604)scale(0.1 -0.1)">
       <use xlink:href="#DejaVuSans-51"/>
       <use x="63.623047" xlink:href="#DejaVuSans-48"/>
       <use x="127.246094" xlink:href="#DejaVuSans-48"/>
      </g>
     </g>
    </g>
    <g id="text_61">
     <!-- MODIS Fires per 1000km2 -->
     <defs>
      <path d="M 9.078125 75.984375 
L 18.109375 75.984375 
L 18.109375 31.109375 
L 44.921875 54.6875 
L 56.390625 54.6875 
L 27.390625 29.109375 
L 57.625 0 
L 45.90625 0 
L 18.109375 26.703125 
L 18.109375 0 
L 9.078125 0 
z
" id="DejaVuSans-107"/>
     </defs>
     <g transform="translate(31.392812 367.372059)rotate(-90)scale(0.1 -0.1)">
      <use xlink:href="#DejaVuSans-77"/>
      <use x="86.279297" xlink:href="#DejaVuSans-79"/>
      <use x="164.990234" xlink:href="#DejaVuSans-68"/>
      <use x="241.992188" xlink:href="#DejaVuSans-73"/>
      <use x="271.484375" xlink:href="#DejaVuSans-83"/>
      <use x="334.960938" xlink:href="#DejaVuSans-32"/>
      <use x="366.748047" xlink:href="#DejaVuSans-70"/>
      <use x="424.158203" xlink:href="#DejaVuSans-105"/>
      <use x="451.941406" xlink:href="#DejaVuSans-114"/>
      <use x="493.023438" xlink:href="#DejaVuSans-101"/>
      <use x="554.546875" xlink:href="#DejaVuSans-115"/>
      <use x="606.646484" xlink:href="#DejaVuSans-32"/>
      <use x="638.433594" xlink:href="#DejaVuSans-112"/>
      <use x="701.910156" xlink:href="#DejaVuSans-101"/>
      <use x="763.433594" xlink:href="#DejaVuSans-114"/>
      <use x="804.546875" xlink:href="#DejaVuSans-32"/>
      <use x="836.333984" xlink:href="#DejaVuSans-49"/>
      <use x="899.957031" xlink:href="#DejaVuSans-48"/>
      <use x="963.580078" xlink:href="#DejaVuSans-48"/>
      <use x="1027.203125" xlink:href="#DejaVuSans-48"/>
      <use x="1090.826172" xlink:href="#DejaVuSans-107"/>
      <use x="1148.736328" xlink:href="#DejaVuSans-109"/>
      <use x="1246.148438" xlink:href="#DejaVuSans-50"/>
     </g>
    </g>
   </g>
   <g id="line2d_77">
    <path clip-path="url(#p0140ed250e)" d="M 85.793182 354.532617 
L 110.496717 365.408817 
L 135.200253 235.371182 
L 159.903788 362.578025 
L 184.607323 365.110839 
L 209.310859 363.442161 
L 234.014394 323.423705 
L 258.717929 362.160856 
L 283.421465 364.00832 
L 308.125 354.175043 
L 332.828535 367.196685 
L 357.532071 366.928505 
L 382.235606 365.945177 
L 406.939141 356.082103 
L 431.642677 360.700763 
L 456.346212 304.978862 
L 481.049747 367.107292 
L 505.753283 351.91041 
L 530.456818 269.310885 
" style="fill:none;stroke:#1f77b4;stroke-linecap:square;stroke-width:1.5;"/>
   </g>
   <g id="line2d_78">
    <path clip-path="url(#p0140ed250e)" d="M 85.793182 367.189916 
L 110.496717 362.981188 
L 135.200253 356.893563 
L 159.903788 339.720448 
L 184.607323 293.161392 
L 209.310859 332.881265 
L 234.014394 328.559803 
L 258.717929 362.079317 
L 283.421465 363.544857 
L 308.125 354.22553 
L 332.828535 357.11903 
L 357.532071 359.29855 
L 382.235606 365.649221 
L 406.939141 354.488575 
L 431.642677 333.557668 
L 456.346212 328.447069 
L 481.049747 334.046181 
L 505.753283 354.075218 
L 530.456818 314.317767 
" style="fill:none;stroke:#ff7f0e;stroke-linecap:square;stroke-width:1.5;"/>
   </g>
   <g id="line2d_79">
    <path clip-path="url(#p0140ed250e)" d="M 85.793182 366.415523 
L 110.496717 360.334297 
L 135.200253 353.352561 
L 159.903788 347.149044 
L 184.607323 311.973545 
L 209.310859 333.685855 
L 234.014394 334.65307 
L 258.717929 348.694364 
L 283.421465 364.558915 
L 308.125 328.671901 
L 332.828535 354.586594 
L 357.532071 355.12023 
L 382.235606 365.059198 
L 406.939141 350.51762 
L 431.642677 332.451822 
L 456.346212 337.754829 
L 481.049747 337.866003 
L 505.753283 350.095158 
L 530.456818 319.677913 
" style="fill:none;stroke:#2ca02c;stroke-linecap:square;stroke-width:1.5;"/>
   </g>
   <g id="line2d_80">
    <path clip-path="url(#p0140ed250e)" d="M 85.793182 366.848732 
L 110.496717 368.332549 
L 135.200253 359.718389 
L 159.903788 366.784567 
L 184.607323 368.124013 
L 209.310859 367.682878 
L 234.014394 364.867636 
L 258.717929 367.257785 
L 283.421465 368.011724 
L 308.125 366.56801 
L 332.828535 368.364632 
L 357.532071 368.324529 
L 382.235606 367.690899 
L 406.939141 365.453142 
L 431.642677 365.003987 
L 456.346212 347.535047 
L 481.049747 368.164116 
L 505.753283 359.357461 
L 530.456818 332.921453 
" style="fill:none;stroke:#d62728;stroke-linecap:square;stroke-width:1.5;"/>
   </g>
   <g id="line2d_81">
    <path clip-path="url(#p0140ed250e)" d="M 85.793182 366.202664 
L 110.496717 347.153918 
L 135.200253 349.838367 
L 159.903788 321.299142 
L 184.607323 323.18368 
L 209.310859 330.735389 
L 234.014394 327.603532 
L 258.717929 356.102083 
L 283.421465 359.749139 
L 308.125 347.88604 
L 332.828535 365.348521 
L 357.532071 356.468145 
L 382.235606 366.202664 
L 406.939141 350.502701 
L 431.642677 352.455028 
L 456.346212 354.678511 
L 481.049747 354.746301 
L 505.753283 361.145595 
L 530.456818 333.867247 
" style="fill:none;stroke:#9467bd;stroke-linecap:square;stroke-width:1.5;"/>
   </g>
   <g id="line2d_82">
    <path clip-path="url(#p0140ed250e)" d="M 85.793182 364.794929 
L 110.496717 339.478997 
L 135.200253 345.812944 
L 159.903788 299.172062 
L 184.607323 321.529504 
L 209.310859 333.403173 
L 234.014394 326.056589 
L 258.717929 336.629713 
L 283.421465 359.096362 
L 308.125 342.080085 
L 332.828535 363.722725 
L 357.532071 350.64779 
L 382.235606 365.857205 
L 406.939141 344.998863 
L 431.642677 351.064759 
L 456.346212 352.802127 
L 481.049747 349.724503 
L 505.753283 363.434818 
L 530.456818 340.3725 
" style="fill:none;stroke:#8c564b;stroke-linecap:square;stroke-width:1.5;"/>
   </g>
   <g id="line2d_83">
    <path clip-path="url(#p0140ed250e)" d="M 85.793182 368.023024 
L 110.496717 367.442955 
L 135.200253 364.479714 
L 159.903788 362.194384 
L 184.607323 356.463586 
L 209.310859 360.356335 
L 234.014394 358.420444 
L 258.717929 363.550206 
L 283.421465 365.157625 
L 308.125 362.718542 
L 332.828535 366.806977 
L 357.532071 361.048224 
L 382.235606 368.127855 
L 406.939141 360.796628 
L 431.642677 359.440805 
L 456.346212 360.279459 
L 481.049747 353.619154 
L 505.753283 362.089552 
L 530.456818 344.289136 
" style="fill:none;stroke:#e377c2;stroke-linecap:square;stroke-width:1.5;"/>
   </g>
   <g id="line2d_84">
    <path clip-path="url(#p0140ed250e)" d="M 85.793182 368.394812 
L 110.496717 365.806908 
L 135.200253 364.679559 
L 159.903788 367.656204 
L 184.607323 348.813372 
L 209.310859 364.08534 
L 234.014394 362.635892 
L 258.717929 367.095306 
L 283.421465 368.372598 
L 308.125 359.998006 
L 332.828535 367.356318 
L 357.532071 366.045706 
L 382.235606 368.122693 
L 406.939141 365.668071 
L 431.642677 361.142015 
L 456.346212 359.881384 
L 481.049747 360.21459 
L 505.753283 358.976173 
L 530.456818 351.029196 
" style="fill:none;stroke:#7f7f7f;stroke-linecap:square;stroke-width:1.5;"/>
   </g>
   <g id="line2d_85">
    <path clip-path="url(#p0140ed250e)" d="M 85.793182 362.262254 
L 110.496717 330.850671 
L 135.200253 347.216256 
L 159.903788 323.785673 
L 184.607323 291.834466 
L 209.310859 339.8429 
L 234.014394 327.526766 
L 258.717929 337.017808 
L 283.421465 364.411682 
L 308.125 315.605148 
L 332.828535 367.254913 
L 357.532071 359.042646 
L 382.235606 367.381884 
L 406.939141 361.251025 
L 431.642677 359.477973 
L 456.346212 365.223386 
L 481.049747 350.236338 
L 505.753283 367.123408 
L 530.456818 355.265275 
" style="fill:none;stroke:#bcbd22;stroke-linecap:square;stroke-width:1.5;"/>
   </g>
   <g id="line2d_86">
    <path clip-path="url(#p0140ed250e)" d="M 85.793182 367.969249 
L 110.496717 363.646446 
L 135.200253 363.848446 
L 159.903788 357.797949 
L 184.607323 356.343548 
L 209.310859 362.493857 
L 234.014394 361.954398 
L 258.717929 361.122633 
L 283.421465 365.523859 
L 308.125 360.977668 
L 332.828535 366.935483 
L 357.532071 362.291857 
L 382.235606 367.593766 
L 406.939141 361.374539 
L 431.642677 363.606046 
L 456.346212 363.933999 
L 481.049747 360.122138 
L 505.753283 367.013907 
L 530.456818 358.213832 
" style="fill:none;stroke:#17becf;stroke-linecap:square;stroke-width:1.5;"/>
   </g>
   <g id="patch_9">
    <path d="M 63.56 375.045994 
L 63.56 228.72 
" style="fill:none;stroke:#000000;stroke-linecap:square;stroke-linejoin:miter;stroke-width:0.8;"/>
   </g>
   <g id="patch_10">
    <path d="M 552.69 375.045994 
L 552.69 228.72 
" style="fill:none;stroke:#000000;stroke-linecap:square;stroke-linejoin:miter;stroke-width:0.8;"/>
   </g>
   <g id="patch_11">
    <path d="M 63.56 375.045994 
L 552.69 375.045994 
" style="fill:none;stroke:#000000;stroke-linecap:square;stroke-linejoin:miter;stroke-width:0.8;"/>
   </g>
   <g id="patch_12">
    <path d="M 63.56 228.72 
L 552.69 228.72 
" style="fill:none;stroke:#000000;stroke-linecap:square;stroke-linejoin:miter;stroke-width:0.8;"/>
   </g>
   <g id="legend_2">
    <g id="patch_13">
     <path d="M 579.1465 379.70125 
L 703.766813 379.70125 
Q 705.766813 379.70125 705.766813 377.70125 
L 705.766813 230.72 
Q 705.766813 228.72 703.766813 228.72 
L 579.1465 228.72 
Q 577.1465 228.72 577.1465 230.72 
L 577.1465 377.70125 
Q 577.1465 379.70125 579.1465 379.70125 
z
" style="fill:#ffffff;opacity:0.8;stroke:#cccccc;stroke-linejoin:miter;"/>
    </g>
    <g id="line2d_87">
     <path d="M 581.1465 237.218437 
L 601.1465 237.218437 
" style="fill:none;stroke:#1f77b4;stroke-linecap:square;stroke-width:1.5;"/>
    </g>
    <g id="line2d_88"/>
    <g id="text_62">
     <!-- Mucajaí -->
     <g transform="translate(609.1465 240.718437)scale(0.1 -0.1)">
      <use xlink:href="#DejaVuSans-77"/>
      <use x="86.279297" xlink:href="#DejaVuSans-117"/>
      <use x="149.658203" xlink:href="#DejaVuSans-99"/>
      <use x="204.638672" xlink:href="#DejaVuSans-97"/>
      <use x="265.917969" xlink:href="#DejaVuSans-106"/>
      <use x="293.701172" xlink:href="#DejaVuSans-97"/>
      <use x="354.980469" xlink:href="#DejaVuSans-237"/>
     </g>
    </g>
    <g id="line2d_89">
     <path d="M 581.1465 251.896562 
L 601.1465 251.896562 
" style="fill:none;stroke:#ff7f0e;stroke-linecap:square;stroke-width:1.5;"/>
    </g>
    <g id="line2d_90"/>
    <g id="text_63">
     <!-- Nova Mamoré -->
     <g transform="translate(609.1465 255.396562)scale(0.1 -0.1)">
      <use xlink:href="#DejaVuSans-78"/>
      <use x="74.804688" xlink:href="#DejaVuSans-111"/>
      <use x="135.986328" xlink:href="#DejaVuSans-118"/>
      <use x="195.166016" xlink:href="#DejaVuSans-97"/>
      <use x="256.445312" xlink:href="#DejaVuSans-32"/>
      <use x="288.232422" xlink:href="#DejaVuSans-77"/>
      <use x="374.511719" xlink:href="#DejaVuSans-97"/>
      <use x="435.791016" xlink:href="#DejaVuSans-109"/>
      <use x="533.203125" xlink:href="#DejaVuSans-111"/>
      <use x="594.384766" xlink:href="#DejaVuSans-114"/>
      <use x="635.466797" xlink:href="#DejaVuSans-233"/>
     </g>
    </g>
    <g id="line2d_91">
     <path d="M 581.1465 266.574687 
L 601.1465 266.574687 
" style="fill:none;stroke:#2ca02c;stroke-linecap:square;stroke-width:1.5;"/>
    </g>
    <g id="line2d_92"/>
    <g id="text_64">
     <!-- Porto Velho -->
     <g transform="translate(609.1465 270.074687)scale(0.1 -0.1)">
      <use xlink:href="#DejaVuSans-80"/>
      <use x="60.255859" xlink:href="#DejaVuSans-111"/>
      <use x="121.4375" xlink:href="#DejaVuSans-114"/>
      <use x="162.550781" xlink:href="#DejaVuSans-116"/>
      <use x="201.759766" xlink:href="#DejaVuSans-111"/>
      <use x="262.941406" xlink:href="#DejaVuSans-32"/>
      <use x="294.728516" xlink:href="#DejaVuSans-86"/>
      <use x="363.027344" xlink:href="#DejaVuSans-101"/>
      <use x="424.550781" xlink:href="#DejaVuSans-108"/>
      <use x="452.333984" xlink:href="#DejaVuSans-104"/>
      <use x="515.712891" xlink:href="#DejaVuSans-111"/>
     </g>
    </g>
    <g id="line2d_93">
     <path d="M 581.1465 281.252813 
L 601.1465 281.252813 
" style="fill:none;stroke:#d62728;stroke-linecap:square;stroke-width:1.5;"/>
    </g>
    <g id="line2d_94"/>
    <g id="text_65">
     <!-- Caracaraí -->
     <g transform="translate(609.1465 284.752813)scale(0.1 -0.1)">
      <use xlink:href="#DejaVuSans-67"/>
      <use x="69.824219" xlink:href="#DejaVuSans-97"/>
      <use x="131.103516" xlink:href="#DejaVuSans-114"/>
      <use x="172.216797" xlink:href="#DejaVuSans-97"/>
      <use x="233.496094" xlink:href="#DejaVuSans-99"/>
      <use x="288.476562" xlink:href="#DejaVuSans-97"/>
      <use x="349.755859" xlink:href="#DejaVuSans-114"/>
      <use x="390.869141" xlink:href="#DejaVuSans-97"/>
      <use x="452.148438" xlink:href="#DejaVuSans-237"/>
     </g>
    </g>
    <g id="line2d_95">
     <path d="M 581.1465 295.930937 
L 601.1465 295.930937 
" style="fill:none;stroke:#9467bd;stroke-linecap:square;stroke-width:1.5;"/>
    </g>
    <g id="line2d_96"/>
    <g id="text_66">
     <!-- Colniza -->
     <g transform="translate(609.1465 299.430937)scale(0.1 -0.1)">
      <use xlink:href="#DejaVuSans-67"/>
      <use x="69.824219" xlink:href="#DejaVuSans-111"/>
      <use x="131.005859" xlink:href="#DejaVuSans-108"/>
      <use x="158.789062" xlink:href="#DejaVuSans-110"/>
      <use x="222.167969" xlink:href="#DejaVuSans-105"/>
      <use x="249.951172" xlink:href="#DejaVuSans-122"/>
      <use x="302.441406" xlink:href="#DejaVuSans-97"/>
     </g>
    </g>
    <g id="line2d_97">
     <path d="M 581.1465 310.609062 
L 601.1465 310.609062 
" style="fill:none;stroke:#8c564b;stroke-linecap:square;stroke-width:1.5;"/>
    </g>
    <g id="line2d_98"/>
    <g id="text_67">
     <!-- Novo Progresso -->
     <g transform="translate(609.1465 314.109062)scale(0.1 -0.1)">
      <use xlink:href="#DejaVuSans-78"/>
      <use x="74.804688" xlink:href="#DejaVuSans-111"/>
      <use x="135.986328" xlink:href="#DejaVuSans-118"/>
      <use x="195.166016" xlink:href="#DejaVuSans-111"/>
      <use x="256.347656" xlink:href="#DejaVuSans-32"/>
      <use x="288.134766" xlink:href="#DejaVuSans-80"/>
      <use x="348.421875" xlink:href="#DejaVuSans-114"/>
      <use x="389.503906" xlink:href="#DejaVuSans-111"/>
      <use x="450.685547" xlink:href="#DejaVuSans-103"/>
      <use x="514.162109" xlink:href="#DejaVuSans-114"/>
      <use x="555.244141" xlink:href="#DejaVuSans-101"/>
      <use x="616.767578" xlink:href="#DejaVuSans-115"/>
      <use x="668.867188" xlink:href="#DejaVuSans-115"/>
      <use x="720.966797" xlink:href="#DejaVuSans-111"/>
     </g>
    </g>
    <g id="line2d_99">
     <path d="M 581.1465 325.687187 
L 601.1465 325.687187 
" style="fill:none;stroke:#e377c2;stroke-linecap:square;stroke-width:1.5;"/>
    </g>
    <g id="line2d_100"/>
    <g id="text_68">
     <!-- Apuí -->
     <g transform="translate(609.1465 329.187187)scale(0.1 -0.1)">
      <use xlink:href="#DejaVuSans-65"/>
      <use x="68.408203" xlink:href="#DejaVuSans-112"/>
      <use x="131.884766" xlink:href="#DejaVuSans-117"/>
      <use x="195.263672" xlink:href="#DejaVuSans-237"/>
     </g>
    </g>
    <g id="line2d_101">
     <path d="M 581.1465 340.365312 
L 601.1465 340.365312 
" style="fill:none;stroke:#7f7f7f;stroke-linecap:square;stroke-width:1.5;"/>
    </g>
    <g id="line2d_102"/>
    <g id="text_69">
     <!-- Lábrea -->
     <g transform="translate(609.1465 343.865312)scale(0.1 -0.1)">
      <use xlink:href="#DejaVuSans-76"/>
      <use x="55.712891" xlink:href="#DejaVuSans-225"/>
      <use x="116.992188" xlink:href="#DejaVuSans-98"/>
      <use x="180.46875" xlink:href="#DejaVuSans-114"/>
      <use x="221.550781" xlink:href="#DejaVuSans-101"/>
      <use x="283.074219" xlink:href="#DejaVuSans-97"/>
     </g>
    </g>
    <g id="line2d_103">
     <path d="M 581.1465 355.443437 
L 601.1465 355.443437 
" style="fill:none;stroke:#bcbd22;stroke-linecap:square;stroke-width:1.5;"/>
    </g>
    <g id="line2d_104"/>
    <g id="text_70">
     <!-- São Félix do Xingu -->
     <g transform="translate(609.1465 358.943437)scale(0.1 -0.1)">
      <use xlink:href="#DejaVuSans-83"/>
      <use x="63.476562" xlink:href="#DejaVuSans-227"/>
      <use x="124.755859" xlink:href="#DejaVuSans-111"/>
      <use x="185.9375" xlink:href="#DejaVuSans-32"/>
      <use x="217.724609" xlink:href="#DejaVuSans-70"/>
      <use x="275.166016" xlink:href="#DejaVuSans-233"/>
      <use x="336.689453" xlink:href="#DejaVuSans-108"/>
      <use x="364.472656" xlink:href="#DejaVuSans-105"/>
      <use x="392.255859" xlink:href="#DejaVuSans-120"/>
      <use x="451.435547" xlink:href="#DejaVuSans-32"/>
      <use x="483.222656" xlink:href="#DejaVuSans-100"/>
      <use x="546.699219" xlink:href="#DejaVuSans-111"/>
      <use x="607.880859" xlink:href="#DejaVuSans-32"/>
      <use x="639.667969" xlink:href="#DejaVuSans-88"/>
      <use x="708.173828" xlink:href="#DejaVuSans-105"/>
      <use x="735.957031" xlink:href="#DejaVuSans-110"/>
      <use x="799.335938" xlink:href="#DejaVuSans-103"/>
      <use x="862.8125" xlink:href="#DejaVuSans-117"/>
     </g>
    </g>
    <g id="line2d_105">
     <path d="M 581.1465 370.121562 
L 601.1465 370.121562 
" style="fill:none;stroke:#17becf;stroke-linecap:square;stroke-width:1.5;"/>
    </g>
    <g id="line2d_106"/>
    <g id="text_71">
     <!-- Altamira -->
     <g transform="translate(609.1465 373.621562)scale(0.1 -0.1)">
      <use xlink:href="#DejaVuSans-65"/>
      <use x="68.408203" xlink:href="#DejaVuSans-108"/>
      <use x="96.191406" xlink:href="#DejaVuSans-116"/>
      <use x="135.400391" xlink:href="#DejaVuSans-97"/>
      <use x="196.679688" xlink:href="#DejaVuSans-109"/>
      <use x="294.091797" xlink:href="#DejaVuSans-105"/>
      <use x="321.875" xlink:href="#DejaVuSans-114"/>
      <use x="362.988281" xlink:href="#DejaVuSans-97"/>
     </g>
    </g>
   </g>
  </g>
 </g>
 <defs>
  <clipPath id="pbdd6c904c7">
   <rect height="146.325994" width="489.13" x="63.56" y="25.44"/>
  </clipPath>
  <clipPath id="p0140ed250e">
   <rect height="146.325994" width="489.13" x="63.56" y="228.72"/>
  </clipPath>
 </defs>
</svg>
